<svg xmlns="http://www.w3.org/2000/svg" xmlns:xlink="http://www.w3.org/1999/xlink" contentStyleType="text/css" data-diagram-type="DESCRIPTION" height="704px" preserveAspectRatio="none" style="width:1285px;height:704px;background:#FFFFFF;" version="1.1" viewBox="0 0 1285 704" width="1285px" zoomAndPan="magnify"><?plantuml 1.2026.3beta4?><defs/><g><!--cluster BE--><g class="cluster" data-qualified-name="BE" data-source-line="30" id="ent0003"><rect fill="#F1F8E9" height="425.49" rx="4" ry="4" style="stroke:#ADB5BD;stroke-width:1;" width="1259" x="12" y="128.59"/><text fill="#000000" font-family="'Segoe UI'" font-size="14" font-weight="700" lengthAdjust="spacing" textLength="132.4258" x="575.2871" y="143.5851">FastAPI Backend</text></g><!--cluster iface--><g class="cluster" data-qualified-name="BE.iface" data-source-line="31" id="ent0004"><rect fill="#FFFFFF" height="87.3" rx="4" ry="4" style="stroke:#ADB5BD;stroke-width:1;" width="248" x="264" y="171.59"/><text fill="#000000" font-family="'Segoe UI'" font-size="14" font-weight="700" lengthAdjust="spacing" textLength="79.9326" x="348.0337" y="186.5851">Interfaces</text></g><!--cluster svc--><g class="cluster" data-qualified-name="BE.svc" data-source-line="36" id="ent0007"><rect fill="#FFFFFF" height="238.19" rx="4" ry="4" style="stroke:#ADB5BD;stroke-width:1;" width="549" x="36" y="291.89"/><text fill="#000000" font-family="'Segoe UI'" font-size="14" font-weight="700" lengthAdjust="spacing" textLength="66.5342" x="277.2329" y="306.8851">Services</text></g><!--cluster repo--><g class="cluster" data-qualified-name="BE.repo" data-source-line="45" id="ent0014"><rect fill="#FFFFFF" height="103.6" rx="4" ry="4" style="stroke:#ADB5BD;stroke-width:1;" width="298" x="609" y="426.48"/><text fill="#000000" font-family="'Segoe UI'" font-size="14" font-weight="700" lengthAdjust="spacing" textLength="98.8887" x="708.5557" y="441.4751">Repositories</text></g><!--cluster adapt--><g class="cluster" data-qualified-name="BE.adapt" data-source-line="50" id="ent0017"><rect fill="#FFFFFF" height="87.3" rx="4" ry="4" style="stroke:#ADB5BD;stroke-width:1;" width="316" x="931" y="434.63"/><text fill="#000000" font-family="'Segoe UI'" font-size="14" font-weight="700" lengthAdjust="spacing" textLength="71.75" x="1053.125" y="449.6251">Adapters</text></g><!--entity api--><g class="entity" data-qualified-name="BE.iface.api" data-source-line="32" id="ent0005"><rect fill="#F8F9FA" height="36.2969" rx="4" ry="4" style="stroke:#DEE2E6;stroke-width:1;" width="82.6104" x="279.69" y="206.59"/><text fill="#212529" font-family="'Segoe UI'" font-size="14" lengthAdjust="spacing" textLength="62.6104" x="289.69" y="229.5851">REST API</text></g><!--entity ws--><g class="entity" data-qualified-name="BE.iface.ws" data-source-line="33" id="ent0006"><rect fill="#F8F9FA" height="36.2969" rx="4" ry="4" style="stroke:#DEE2E6;stroke-width:1;" width="98.7021" x="397.65" y="206.59"/><text fill="#212529" font-family="'Segoe UI'" font-size="14" lengthAdjust="spacing" textLength="78.7021" x="407.65" y="229.5851">WebSocket</text></g><!--entity trainer--><g class="entity" data-qualified-name="BE.svc.trainer" data-source-line="37" id="ent0008"><rect fill="#F8F9FA" height="52.5938" rx="4" ry="4" style="stroke:#DEE2E6;stroke-width:1;" width="112.0527" x="51.97" y="326.89"/><text fill="#212529" font-family="'Segoe UI'" font-size="14" lengthAdjust="spacing" textLength="92.0527" x="61.97" y="349.8851">ModelTrainer</text><text fill="#212529" font-family="'Segoe UI'" font-size="14" lengthAdjust="spacing" textLength="67.9014" x="61.97" y="366.182">+ Optuna</text></g><!--entity wf--><g class="entity" data-qualified-name="BE.svc.wf" data-source-line="38" id="ent0009"><rect fill="#F8F9FA" height="52.5938" rx="4" ry="4" style="stroke:#DEE2E6;stroke-width:1;" width="111.4648" x="199.27" y="326.89"/><text fill="#212529" font-family="'Segoe UI'" font-size="14" lengthAdjust="spacing" textLength="91.4648" x="209.27" y="349.8851">WalkForward</text><text fill="#212529" font-family="'Segoe UI'" font-size="14" lengthAdjust="spacing" textLength="75.2432" x="209.27" y="366.182">Backtester</text></g><!--entity pred--><g class="entity" data-qualified-name="BE.svc.pred" data-source-line="39" id="ent0010"><rect fill="#F8F9FA" height="36.2969" rx="4" ry="4" style="stroke:#DEE2E6;stroke-width:1;" width="83.0957" x="345.45" y="335.04"/><text fill="#212529" font-family="'Segoe UI'" font-size="14" lengthAdjust="spacing" textLength="63.0957" x="355.45" y="358.0351">Predictor</text></g><!--entity sync--><g class="entity" data-qualified-name="BE.svc.sync" data-source-line="40" id="ent0011"><rect fill="#F8F9FA" height="36.2969" rx="4" ry="4" style="stroke:#DEE2E6;stroke-width:1;" width="105.4834" x="463.26" y="335.04"/><text fill="#212529" font-family="'Segoe UI'" font-size="14" lengthAdjust="spacing" textLength="85.4834" x="473.26" y="358.0351">SyncService</text></g><!--entity de--><g class="entity" data-qualified-name="BE.svc.de" data-source-line="41" id="ent0012"><rect fill="#F8F9FA" height="52.5938" rx="4" ry="4" style="stroke:#DEE2E6;stroke-width:1;" width="138.2617" x="196.87" y="461.48"/><text fill="#212529" font-family="'Segoe UI'" font-size="14" lengthAdjust="spacing" textLength="118.2617" x="206.87" y="484.4751">DoubleEnsemble</text><text fill="#212529" font-family="'Segoe UI'" font-size="14" lengthAdjust="spacing" textLength="87.7666" x="206.87" y="500.772">(ICDM 2020)</text></g><!--entity qexp--><g class="entity" data-qualified-name="BE.svc.qexp" data-source-line="42" id="ent0013"><rect fill="#F8F9FA" height="36.2969" rx="4" ry="4" style="stroke:#DEE2E6;stroke-width:1;" width="107.8828" x="54.06" y="469.63"/><text fill="#212529" font-family="'Segoe UI'" font-size="14" lengthAdjust="spacing" textLength="87.8828" x="64.06" y="492.6251">QlibExporter</text></g><!--entity dal--><g class="entity" data-qualified-name="BE.repo.dal" data-source-line="46" id="ent0015"><rect fill="#F8F9FA" height="52.5938" rx="4" ry="4" style="stroke:#DEE2E6;stroke-width:1;" width="119.2031" x="625.4" y="461.48"/><text fill="#212529" font-family="'Segoe UI'" font-size="14" lengthAdjust="spacing" textLength="86.0508" x="635.4" y="484.4751">Data Access</text><text fill="#212529" font-family="'Segoe UI'" font-size="14" lengthAdjust="spacing" textLength="99.2031" x="635.4" y="500.772">(SQLAlchemy)</text></g><!--entity factors--><g class="entity" data-qualified-name="BE.repo.factors" data-source-line="47" id="ent0016"><rect fill="#F8F9FA" height="52.5938" rx="4" ry="4" style="stroke:#DEE2E6;stroke-width:1;" width="111.2119" x="779.39" y="461.48"/><text fill="#212529" font-family="'Segoe UI'" font-size="14" lengthAdjust="spacing" textLength="80.2061" x="789.39" y="484.4751">Factor Defs</text><text fill="#212529" font-family="'Segoe UI'" font-size="14" lengthAdjust="spacing" textLength="91.2119" x="789.39" y="500.772">~300 factors</text></g><!--entity twse--><g class="entity" data-qualified-name="BE.adapt.twse" data-source-line="51" id="ent0018"><rect fill="#F8F9FA" height="36.2969" rx="4" ry="4" style="stroke:#DEE2E6;stroke-width:1;" width="60.127" x="946.94" y="469.63"/><text fill="#212529" font-family="'Segoe UI'" font-size="14" lengthAdjust="spacing" textLength="40.127" x="956.94" y="492.6251">TWSE</text></g><!--entity fm--><g class="entity" data-qualified-name="BE.adapt.fm" data-source-line="52" id="ent0019"><rect fill="#F8F9FA" height="36.2969" rx="4" ry="4" style="stroke:#DEE2E6;stroke-width:1;" width="74.5439" x="1041.73" y="469.63"/><text fill="#212529" font-family="'Segoe UI'" font-size="14" lengthAdjust="spacing" textLength="54.5439" x="1051.73" y="492.6251">FinMind</text></g><!--entity yf--><g class="entity" data-qualified-name="BE.adapt.yf" data-source-line="53" id="ent0020"><rect fill="#F8F9FA" height="36.2969" rx="4" ry="4" style="stroke:#DEE2E6;stroke-width:1;" width="79.7393" x="1151.13" y="469.63"/><text fill="#212529" font-family="'Segoe UI'" font-size="14" lengthAdjust="spacing" textLength="59.7393" x="1161.13" y="492.6251">yfinance</text></g><!--entity FE--><g class="entity" data-qualified-name="FE" data-source-line="28" id="ent0002"><rect fill="#E3F2FD" height="52.5938" rx="4" ry="4" style="stroke:#000000;stroke-width:1;" width="314.6357" x="226.68" y="12"/><text fill="#000000" font-family="'Segoe UI'" font-size="14" font-weight="700" lengthAdjust="spacing" textLength="134.9688" x="236.68" y="34.9951">React Dashboard</text><text fill="#000000" font-family="'Segoe UI'" font-size="14" lengthAdjust="spacing" textLength="294.6357" x="236.68" y="51.292">Vite + TailwindCSS + Zustand + Recharts</text></g><!--entity db--><g class="entity" data-qualified-name="db" data-source-line="57" id="ent0021"><path d="M652.15,628.08 C652.15,618.08 684.9991,618.08 684.9991,618.08 C684.9991,618.08 717.8482,618.08 717.8482,628.08 L717.8482,669.6737 C717.8482,679.6737 684.9991,679.6737 684.9991,679.6737 C684.9991,679.6737 652.15,679.6737 652.15,669.6737 L652.15,628.08" fill="#FFF3CD" style="stroke:#FFCA2C;stroke-width:1;"/><path d="M652.15,628.08 C652.15,638.08 684.9991,638.08 684.9991,638.08 C684.9991,638.08 717.8482,638.08 717.8482,628.08" fill="none" style="stroke:#FFCA2C;stroke-width:1;"/><text fill="#000000" font-family="'Segoe UI'" font-size="14" lengthAdjust="spacing" textLength="45.6982" x="662.15" y="655.0751">SQLite</text><text fill="#000000" font-family="'Segoe UI'" font-size="14" lengthAdjust="spacing" textLength="42.1436" x="662.15" y="671.372">(WAL)</text></g><!--entity qlib--><g class="entity" data-qualified-name="qlib" data-source-line="58" id="ent0022"><path d="M135.88,636.22 C135.88,626.22 174.9977,626.22 174.9977,626.22 C174.9977,626.22 214.1154,626.22 214.1154,636.22 L214.1154,661.5169 C214.1154,671.5169 174.9977,671.5169 174.9977,671.5169 C174.9977,671.5169 135.88,671.5169 135.88,661.5169 L135.88,636.22" fill="#FFF3CD" style="stroke:#FFCA2C;stroke-width:1;"/><path d="M135.88,636.22 C135.88,646.22 174.9977,646.22 174.9977,646.22 C174.9977,646.22 214.1154,646.22 214.1154,636.22" fill="none" style="stroke:#FFCA2C;stroke-width:1;"/><text fill="#000000" font-family="'Segoe UI'" font-size="14" lengthAdjust="spacing" textLength="58.2354" x="145.88" y="663.2151">Qlib .bin</text></g><!--link FE to api--><g class="link" data-entity-1="ent0002" data-entity-2="ent0005" data-link-type="dependency" data-source-line="60" id="lnk23"><path d="M368.44,64.82 C363.33,73.97 357.95,84.53 354,94.59 C338.88,133.16 329.8702,175.0317 325.1602,200.2817" fill="none" id="FE-to-api" style="stroke:#555555;stroke-width:1.5;"/><polygon fill="#555555" points="324.06,206.18,329.6425,198.0661,324.9769,201.2648,321.7782,196.5991,324.06,206.18" style="stroke:#555555;stroke-width:1.5;"/><text fill="#000000" font-family="'Segoe UI'" font-size="14" lengthAdjust="spacing" textLength="36.0732" x="355" y="108.5851">HTTP</text></g><!--link FE to ws--><g class="link" data-entity-1="ent0002" data-entity-2="ent0006" data-link-type="dependency" data-source-line="61" id="lnk24"><path d="M394.6998,70.6178 C407.7198,108.7278 427.9505,167.9621 439.1105,200.6321" fill="none" id="FE-ws" style="stroke:#555555;stroke-width:1.5;"/><polygon fill="#555555" points="392.76,64.94,391.8845,74.7499,394.3765,69.6715,399.4549,72.1635,392.76,64.94" style="stroke:#555555;stroke-width:1.5;"/><polygon fill="#555555" points="441.05,206.31,441.9259,196.5002,439.4337,201.5784,434.3554,199.0862,441.05,206.31" style="stroke:#555555;stroke-width:1.5;"/><text fill="#000000" font-family="'Segoe UI'" font-size="14" lengthAdjust="spacing" textLength="78.7021" x="409" y="108.5851">WebSocket</text></g><!--link api to trainer--><g class="link" data-entity-1="ent0005" data-entity-2="ent0008" data-link-type="dependency" data-source-line="63" id="lnk25"><path d="M279.3,238.87 C250.67,248.9 212.49,264.31 182,283.89 C163.46,295.79 149.4618,308.2468 135.7418,322.1668" fill="none" id="api-to-trainer" style="stroke:#555555;stroke-width:1.5;"/><polygon fill="#555555" points="131.53,326.44,140.6966,322.838,135.0399,322.879,134.9989,317.2223,131.53,326.44" style="stroke:#555555;stroke-width:1.5;"/></g><!--link api to wf--><g class="link" data-entity-1="ent0005" data-entity-2="ent0009" data-link-type="dependency" data-source-line="64" id="lnk26"><path d="M311.82,243.32 C300.56,264.9 284.1465,296.3511 271.2165,321.1211" fill="none" id="api-to-wf" style="stroke:#555555;stroke-width:1.5;"/><polygon fill="#555555" points="268.44,326.44,276.1507,320.3126,270.7537,322.0076,269.0588,316.6106,268.44,326.44" style="stroke:#555555;stroke-width:1.5;"/></g><!--link api to pred--><g class="link" data-entity-1="ent0005" data-entity-2="ent0010" data-link-type="dependency" data-source-line="65" id="lnk27"><path d="M330.18,243.32 C342.79,267.48 362.5535,305.3511 375.1235,329.4311" fill="none" id="api-to-pred" style="stroke:#555555;stroke-width:1.5;"/><polygon fill="#555555" points="377.9,334.75,377.2812,324.9206,375.5862,330.3176,370.1893,328.6226,377.9,334.75" style="stroke:#555555;stroke-width:1.5;"/></g><!--link api to sync--><g class="link" data-entity-1="ent0005" data-entity-2="ent0011" data-link-type="dependency" data-source-line="66" id="lnk28"><path d="M342.28,243.36 C353.03,251.52 366.61,260.74 380,266.89 C407.53,279.53 419.6,269.03 446,283.89 C468.93,296.8 485.9435,314.4803 498.8035,330.0803" fill="none" id="api-to-sync" style="stroke:#555555;stroke-width:1.5;"/><polygon fill="#555555" points="502.62,334.71,499.9817,325.2211,499.4396,330.8519,493.8087,330.3098,502.62,334.71" style="stroke:#555555;stroke-width:1.5;"/></g><!--link trainer to de--><g class="link" data-entity-1="ent0008" data-entity-2="ent0012" data-link-type="dependency" data-source-line="68" id="lnk29"><path d="M138.46,379.75 C166.35,403.16 202.8242,433.7627 230.7642,457.2127" fill="none" id="trainer-to-de" style="stroke:#555555;stroke-width:1.5;"/><polygon fill="#555555" points="235.36,461.07,231.0378,452.2202,231.5302,457.8556,225.8948,458.348,235.36,461.07" style="stroke:#555555;stroke-width:1.5;"/></g><!--link wf to de--><g class="link" data-entity-1="ent0009" data-entity-2="ent0012" data-link-type="dependency" data-source-line="69" id="lnk30"><path d="M257.12,379.75 C259.07,403.23 261.4428,431.8606 263.3928,455.3106" fill="none" id="wf-to-de" style="stroke:#555555;stroke-width:1.5;"/><polygon fill="#555555" points="263.89,461.29,267.1304,451.9895,263.4757,456.3072,259.1579,452.6524,263.89,461.29" style="stroke:#555555;stroke-width:1.5;"/></g><!--link pred to de--><g class="link" data-entity-1="ent0010" data-entity-2="ent0012" data-link-type="dependency" data-source-line="70" id="lnk31"><path d="M370.93,371.79 C349.97,394.76 317.2042,430.6678 293.2342,456.9378" fill="none" id="pred-to-de" style="stroke:#555555;stroke-width:1.5;"/><polygon fill="#555555" points="289.19,461.37,298.2111,457.4178,292.5601,457.6765,292.3014,452.0255,289.19,461.37" style="stroke:#555555;stroke-width:1.5;"/></g><!--link trainer to qexp--><g class="link" data-entity-1="ent0008" data-entity-2="ent0013" data-link-type="dependency" data-source-line="71" id="lnk32"><path d="M108,379.75 C108,406.09 108,440.43 108,463.33" fill="none" id="trainer-to-qexp" style="stroke:#555555;stroke-width:1.5;"/><polygon fill="#555555" points="108,469.33,112,460.33,108,464.33,104,460.33,108,469.33" style="stroke:#555555;stroke-width:1.5;"/></g><!--link wf to qexp--><g class="link" data-entity-1="ent0009" data-entity-2="ent0013" data-link-type="dependency" data-source-line="72" id="lnk33"><path d="M223.92,379.71 C210.01,391.34 193.5,405.4 179,418.48 C160.33,435.33 143.9611,451.1261 129.7711,465.1261" fill="none" id="wf-to-qexp" style="stroke:#555555;stroke-width:1.5;"/><polygon fill="#555555" points="125.5,469.34,134.716,465.8665,129.0593,465.8284,129.0974,460.1716,125.5,469.34" style="stroke:#555555;stroke-width:1.5;"/></g><!--link sync to twse--><g class="link" data-entity-1="ent0011" data-entity-2="ent0018" data-link-type="dependency" data-source-line="74" id="lnk34"><path d="M568.94,358.92 C661.55,367.86 848.67,389 907,418.48 C930.79,430.51 948.0067,448.765 960.6367,464.725" fill="none" id="sync-to-twse" style="stroke:#555555;stroke-width:1.5;"/><polygon fill="#555555" points="964.36,469.43,961.9117,459.8903,961.2572,465.5092,955.6384,464.8547,964.36,469.43" style="stroke:#555555;stroke-width:1.5;"/></g><!--link sync to fm--><g class="link" data-entity-1="ent0011" data-entity-2="ent0019" data-link-type="dependency" data-source-line="75" id="lnk35"><path d="M568.99,355.85 C683.06,360.24 947.81,374.93 1025,418.48 C1045.67,430.14 1058.372,447.9529 1067.362,464.0329" fill="none" id="sync-to-fm" style="stroke:#555555;stroke-width:1.5;"/><polygon fill="#555555" points="1070.29,469.27,1069.3895,459.4624,1067.85,464.9058,1062.4067,463.3663,1070.29,469.27" style="stroke:#555555;stroke-width:1.5;"/></g><!--link sync to yf--><g class="link" data-entity-1="ent0011" data-entity-2="ent0020" data-link-type="dependency" data-source-line="76" id="lnk36"><path d="M569.15,354.65 C700.47,356.59 1036.65,366.62 1134,418.48 C1155.4,429.88 1168.9185,447.8358 1178.5485,463.9958" fill="none" id="sync-to-yf" style="stroke:#555555;stroke-width:1.5;"/><polygon fill="#555555" points="1181.62,469.15,1180.4489,459.371,1179.0604,464.8548,1173.5766,463.4663,1181.62,469.15" style="stroke:#555555;stroke-width:1.5;"/></g><!--link trainer to dal--><g class="link" data-entity-1="ent0008" data-entity-2="ent0015" data-link-type="dependency" data-source-line="78" id="lnk37"><path d="M164.18,374.9 C170.14,376.64 176.16,378.22 182,379.48 C203.99,384.24 563.85,410.82 585,418.48 C611.29,428.01 632.5704,442.3249 651.4504,457.4749" fill="none" id="trainer-to-dal" style="stroke:#555555;stroke-width:1.5;"/><polygon fill="#555555" points="656.13,461.23,651.6139,452.4776,652.2303,458.1007,646.6071,458.7171,656.13,461.23" style="stroke:#555555;stroke-width:1.5;"/></g><!--link wf to dal--><g class="link" data-entity-1="ent0009" data-entity-2="ent0015" data-link-type="dependency" data-source-line="79" id="lnk38"><path d="M310.88,374.71 C316.62,376.47 322.4,378.1 328,379.48 C356.04,386.41 558.12,407.91 585,418.48 C610.63,428.57 631.4904,442.5153 650.3704,457.3353" fill="none" id="wf-to-dal" style="stroke:#555555;stroke-width:1.5;"/><polygon fill="#555555" points="655.09,461.04,650.4803,452.3365,651.157,457.9527,645.5407,458.6293,655.09,461.04" style="stroke:#555555;stroke-width:1.5;"/></g><!--link pred to dal--><g class="link" data-entity-1="ent0010" data-entity-2="ent0015" data-link-type="dependency" data-source-line="80" id="lnk39"><path d="M426.07,371.79 C432.66,374.51 439.48,377.18 446,379.48 C506.51,400.84 526.85,391.36 585,418.48 C609.39,429.86 629.5967,443.3211 648.4967,457.5511" fill="none" id="pred-to-dal" style="stroke:#555555;stroke-width:1.5;"/><polygon fill="#555555" points="653.29,461.16,648.506,452.5511,649.2956,458.1526,643.6941,458.9421,653.29,461.16" style="stroke:#555555;stroke-width:1.5;"/></g><!--link sync to dal--><g class="link" data-entity-1="ent0011" data-entity-2="ent0015" data-link-type="dependency" data-source-line="81" id="lnk40"><path d="M538.44,371.79 C567.62,394.69 614.0893,431.1467 647.5893,457.4267" fill="none" id="sync-to-dal" style="stroke:#555555;stroke-width:1.5;"/><polygon fill="#555555" points="652.31,461.13,647.6978,452.4279,648.376,458.0439,642.76,458.7222,652.31,461.13" style="stroke:#555555;stroke-width:1.5;"/></g><!--link dal to db--><g class="link" data-entity-1="ent0015" data-entity-2="ent0021" data-link-type="dependency" data-source-line="83" id="lnk41"><path d="M685,514.34 C685,542.54 685,581.86 685,611.76" fill="none" id="dal-to-db" style="stroke:#555555;stroke-width:1.5;"/><polygon fill="#555555" points="685,617.76,689,608.76,685,612.76,681,608.76,685,617.76" style="stroke:#555555;stroke-width:1.5;"/></g><!--link qexp to qlib--><g class="link" data-entity-1="ent0013" data-entity-2="ent0022" data-link-type="dependency" data-source-line="84" id="lnk42"><path d="M115.43,506.41 C127.73,535.62 149.9721,588.43 163.3921,620.31" fill="none" id="qexp-to-qlib" style="stroke:#555555;stroke-width:1.5;"/><polygon fill="#555555" points="165.72,625.84,165.9149,615.9931,163.7801,621.2317,158.5415,619.0969,165.72,625.84" style="stroke:#555555;stroke-width:1.5;"/></g><!--link de to qlib--><g class="link" data-entity-1="ent0012" data-entity-2="ent0022" data-link-type="dependency" data-source-line="85" id="lnk43"><path d="M251.38,514.34 C233.69,545.26 207.2103,591.5725 190.5103,620.7525" fill="none" id="de-to-qlib" style="stroke:#555555;stroke-width:1.5;stroke-dasharray:7,7;"/><polygon fill="#555555" points="187.53,625.96,195.4721,620.1356,190.0136,621.6204,188.5288,616.1619,187.53,625.96" style="stroke:#555555;stroke-width:1.5;"/><text fill="#000000" font-family="'Segoe UI'" font-size="14" lengthAdjust="spacing" textLength="39.1289" x="218" y="584.0751">reads</text></g><?plantuml-src TLHHRzem47xFh_3eoqfL1BHiPPec1P9eIEtM4hPA6tjmaWCiWftQffHDss_VsKvee9GNSj-Tl-_kyoLlz09MG8gSCkwf9UC5bNH54fekvrAiUJOKkP3a9BA_MaK6CxhETIIu_aAHeH73N03vDceSBuhPRo2TorfIBMWcDepFoOpc2cgPKbXoaEIgXljIYatPKC_-3fEJ1KkN79GYdLOzcOfL8JXW6tgR0v6GQihdEHmh8NyyGWOl3BYA-f5lCa9c84iq2CDk-0vHCsA9TJlTNhVl_Qrn5yX6v_0AixFsWDaF1hr1iCzysU-rU-zBp4sIY3pRaygefWbLhsjT38D3hIWQ-jqXqdXQ54GBPDLQ81SpHZ71FM_d66aqcsEWgIO1LOj4K9arcrF-dMaWPsH2MOvNcWtZ6ACVQuM7CdmQGxgWKgi6eOf48Ja9Bw9k51pmHbHf_tPasmQElBPyWELH9xeA-tQcseaHro1dD0N7oyoZhI7avpYC9mJ9VfaCBPX3xo691P9h2syKeZZr7caCyf5LbEenhGXlH0RvHE9x0dBApyZNGgyvjJpQeQK4pPUHa1iqPihD91eKjka4PwxcLaB6KYqSMc3ay7ZBqrBVPXJ6BXE8TP93o1Miy7_Atuw6mGtfjhljKrkPWQkxoraIFXL2Lf8Fy5GScN8CXL0CEs3bf1A1QjG0TuZuAPgWK2c-k_Rp53yJsrAAvguiecO44i0Co_vTjDlu8Xj4sRBo-OYsdz42stEwr0ILyEG-3fsZ6rKE535-WmlbA5SEsyuOfxpqQ3kp4YYoM_q6jepxYBtV-zUdLYPBQcbZ4cabZDlK0qQUXqjvZfyZVlx9R0lvG3vF9hS6_LZ16uNeRe4ypvHLkMe3wXXUTZsqjrm7xELwvSaTYXUvcTKZSwuU7nwm5rmxOcFFa3ztPzpSGz39lHXDVDa9tdEz5GptUq5WZyG0w7B-32IUwUQvDUDq1gHbufQBqLC9D5F_0G00?></g></svg>