<svg xmlns="http://www.w3.org/2000/svg" xmlns:xlink="http://www.w3.org/1999/xlink" contentStyleType="text/css" data-diagram-type="DESCRIPTION" height="995px" preserveAspectRatio="none" style="width:1893px;height:995px;background:#FFFFFF;" version="1.1" viewBox="0 0 1893 995" width="1893px" zoomAndPan="magnify"><?plantuml 1.2026.3beta4?><defs/><g><g class="title" data-source-line="34"><text fill="#000000" font-family="'Segoe UI'" font-size="22" font-weight="700" lengthAdjust="spacing" textLength="335.6182" x="777.8828" y="35.4209">qlib-tw-trader Architecture</text></g><!--cluster FE--><g class="cluster" data-qualified-name="FE" data-source-line="36" id="ent0002"><path d="M15,57.6094 L80.0693,57.6094 A6,6 0 0 1 84.0693,61.6094 L91.0693,78.7422 L513,78.7422 A4,4 0 0 1 517,82.7422 L517,356.4394 A4,4 0 0 1 513,360.4394 L15,360.4394 A4,4 0 0 1 11,356.4394 L11,61.6094 A4,4 0 0 1 15,57.6094" fill="#E3F2FD" style="stroke:#ADB5BD;stroke-width:1;"/><line style="stroke:#ADB5BD;stroke-width:1;" x1="11" x2="91.0693" y1="78.7422" y2="78.7422"/><text fill="#495057" font-family="'Segoe UI'" font-size="13" font-weight="700" lengthAdjust="spacing" textLength="67.0693" x="15" y="71.6763">Frontend</text></g><!--cluster BE--><g class="cluster" data-qualified-name="BE" data-source-line="47" id="ent0010"><path d="M545,207.7394 L677.8496,207.7394 A6,6 0 0 1 681.8496,211.7394 L688.8496,228.8722 L1458,228.8722 A4,4 0 0 1 1462,232.8722 L1462,976.0694 A4,4 0 0 1 1458,980.0694 L545,980.0694 A4,4 0 0 1 541,976.0694 L541,211.7394 A4,4 0 0 1 545,207.7394" fill="#F1F8E9" style="stroke:#ADB5BD;stroke-width:1;"/><line style="stroke:#ADB5BD;stroke-width:1;" x1="541" x2="688.8496" y1="228.8722" y2="228.8722"/><text fill="#495057" font-family="'Segoe UI'" font-size="13" font-weight="700" lengthAdjust="spacing" textLength="134.8496" x="545" y="221.8063">Backend (FastAPI)</text></g><!--cluster iface--><g class="cluster" data-qualified-name="BE.iface" data-source-line="49" id="ent0011"><path d="M569,249.7394 L641.2231,249.7394 A6,6 0 0 1 645.2231,253.7394 L652.2231,270.8722 L921,270.8722 A4,4 0 0 1 925,274.8722 L925,364.0094 A4,4 0 0 1 921,368.0094 L569,368.0094 A4,4 0 0 1 565,364.0094 L565,253.7394 A4,4 0 0 1 569,249.7394" fill="#FFFFFF" style="stroke:#ADB5BD;stroke-width:1;"/><line style="stroke:#ADB5BD;stroke-width:1;" x1="565" x2="652.2231" y1="270.8722" y2="270.8722"/><text fill="#495057" font-family="'Segoe UI'" font-size="13" font-weight="700" lengthAdjust="spacing" textLength="74.2231" x="569" y="263.8063">Interfaces</text></g><!--cluster svc--><g class="cluster" data-qualified-name="BE.svc" data-source-line="55" id="ent0015"><path d="M569,401.0094 L628.7817,401.0094 A6,6 0 0 1 632.7817,405.0094 L639.7817,422.1422 L1087,422.1422 A4,4 0 0 1 1091,426.1422 L1091,664.5394 A4,4 0 0 1 1087,668.5394 L569,668.5394 A4,4 0 0 1 565,664.5394 L565,405.0094 A4,4 0 0 1 569,401.0094" fill="#FFFFFF" style="stroke:#ADB5BD;stroke-width:1;"/><line style="stroke:#ADB5BD;stroke-width:1;" x1="565" x2="639.7817" y1="422.1422" y2="422.1422"/><text fill="#495057" font-family="'Segoe UI'" font-size="13" font-weight="700" lengthAdjust="spacing" textLength="61.7817" x="569" y="415.0763">Services</text></g><!--cluster repo--><g class="cluster" data-qualified-name="BE.repo" data-source-line="64" id="ent0022"><path d="M662,717.5394 L751.8252,717.5394 A6,6 0 0 1 755.8252,721.5394 L762.8252,738.6722 L820,738.6722 A4,4 0 0 1 824,742.6722 L824,952.0694 A4,4 0 0 1 820,956.0694 L662,956.0694 A4,4 0 0 1 658,952.0694 L658,721.5394 A4,4 0 0 1 662,717.5394" fill="#FFFFFF" style="stroke:#ADB5BD;stroke-width:1;"/><line style="stroke:#ADB5BD;stroke-width:1;" x1="658" x2="762.8252" y1="738.6722" y2="738.6722"/><text fill="#495057" font-family="'Segoe UI'" font-size="13" font-weight="700" lengthAdjust="spacing" textLength="91.8252" x="662" y="731.6063">Repositories</text></g><!--cluster adapt--><g class="cluster" data-qualified-name="BE.adapt" data-source-line="69" id="ent0025"><path d="M1119,550.2694 L1183.625,550.2694 A6,6 0 0 1 1187.625,554.2694 L1194.625,571.4022 L1434,571.4022 A4,4 0 0 1 1438,575.4022 L1438,664.5394 A4,4 0 0 1 1434,668.5394 L1119,668.5394 A4,4 0 0 1 1115,664.5394 L1115,554.2694 A4,4 0 0 1 1119,550.2694" fill="#FFFFFF" style="stroke:#ADB5BD;stroke-width:1;"/><line style="stroke:#ADB5BD;stroke-width:1;" x1="1115" x2="1194.625" y1="571.4022" y2="571.4022"/><text fill="#495057" font-family="'Segoe UI'" font-size="13" font-weight="700" lengthAdjust="spacing" textLength="66.625" x="1119" y="564.3363">Adapters</text></g><!--entity dashboard--><g class="entity" data-qualified-name="FE.dashboard" data-source-line="37" id="ent0003"><rect fill="#F8F9FA" height="35.1328" rx="4" ry="4" style="stroke:#DEE2E6;stroke-width:1;" width="152.8057" x="306.6" y="109.6094"/><text fill="#212529" font-family="'Segoe UI'" font-size="13" lengthAdjust="spacing" textLength="132.8057" x="316.6" y="131.6763">React 18 Dashboard</text></g><!--entity charts--><g class="entity" data-qualified-name="FE.charts" data-source-line="38" id="ent0004"><rect fill="#F8F9FA" height="35.1328" rx="4" ry="4" style="stroke:#DEE2E6;stroke-width:1;" width="156.9697" x="26.52" y="309.3094"/><text fill="#212529" font-family="'Segoe UI'" font-size="13" lengthAdjust="spacing" textLength="136.9697" x="36.52" y="331.3763">Recharts / LW Charts</text></g><!--entity store--><g class="entity" data-qualified-name="FE.store" data-source-line="39" id="ent0005"><rect fill="#F8F9FA" height="35.1328" rx="4" ry="4" style="stroke:#DEE2E6;stroke-width:1;" width="112.2505" x="218.87" y="309.3094"/><text fill="#212529" font-family="'Segoe UI'" font-size="13" lengthAdjust="spacing" textLength="92.2505" x="228.87" y="331.3763">Zustand Store</text></g><!--entity wsc--><g class="entity" data-qualified-name="FE.wsc" data-source-line="40" id="ent0006"><rect fill="#F8F9FA" height="35.1328" rx="4" ry="4" style="stroke:#DEE2E6;stroke-width:1;" width="134.8481" x="366.58" y="309.3094"/><text fill="#212529" font-family="'Segoe UI'" font-size="13" lengthAdjust="spacing" textLength="114.8481" x="376.58" y="331.3763">WebSocket Client</text></g><!--entity api--><g class="entity" data-qualified-name="BE.iface.api" data-source-line="50" id="ent0012"><rect fill="#F8F9FA" height="50.2656" rx="4" ry="4" style="stroke:#DEE2E6;stroke-width:1;" width="78.1382" x="709.93" y="301.7394"/><text fill="#212529" font-family="'Segoe UI'" font-size="13" lengthAdjust="spacing" textLength="58.1382" x="719.93" y="323.8063">REST API</text><text fill="#212529" font-family="'Segoe UI'" font-size="13" lengthAdjust="spacing" textLength="55.4341" x="719.93" y="338.9391">/api/v1/*</text></g><!--entity ws--><g class="entity" data-qualified-name="BE.iface.ws" data-source-line="51" id="ent0013"><rect fill="#F8F9FA" height="50.2656" rx="4" ry="4" style="stroke:#DEE2E6;stroke-width:1;" width="93.0806" x="581.46" y="301.7394"/><text fill="#212529" font-family="'Segoe UI'" font-size="13" lengthAdjust="spacing" textLength="73.0806" x="591.46" y="323.8063">WebSocket</text><text fill="#212529" font-family="'Segoe UI'" font-size="13" lengthAdjust="spacing" textLength="21.7852" x="591.46" y="338.9391">/ws</text></g><!--entity schemas--><g class="entity" data-qualified-name="BE.iface.schemas" data-source-line="52" id="ent0014"><rect fill="#F8F9FA" height="50.2656" rx="4" ry="4" style="stroke:#DEE2E6;stroke-width:1;" width="85.9902" x="823" y="301.7394"/><text fill="#212529" font-family="'Segoe UI'" font-size="13" lengthAdjust="spacing" textLength="59.0396" x="833" y="323.8063">Schemas</text><text fill="#212529" font-family="'Segoe UI'" font-size="13" lengthAdjust="spacing" textLength="65.9902" x="833" y="338.9391">(Pydantic)</text></g><!--entity trainer--><g class="entity" data-qualified-name="BE.svc.trainer" data-source-line="56" id="ent0016"><rect fill="#F8F9FA" height="50.2656" rx="4" ry="4" style="stroke:#DEE2E6;stroke-width:1;" width="105.4775" x="581.26" y="453.0094"/><text fill="#212529" font-family="'Segoe UI'" font-size="13" lengthAdjust="spacing" textLength="85.4775" x="591.26" y="475.0763">ModelTrainer</text><text fill="#212529" font-family="'Segoe UI'" font-size="13" lengthAdjust="spacing" textLength="63.0513" x="591.26" y="490.2091">+ Optuna</text></g><!--entity wf--><g class="entity" data-qualified-name="BE.svc.wf" data-source-line="57" id="ent0017"><rect fill="#F8F9FA" height="50.2656" rx="4" ry="4" style="stroke:#DEE2E6;stroke-width:1;" width="104.9316" x="721.53" y="453.0094"/><text fill="#212529" font-family="'Segoe UI'" font-size="13" lengthAdjust="spacing" textLength="84.9316" x="731.53" y="475.0763">WalkForward</text><text fill="#212529" font-family="'Segoe UI'" font-size="13" lengthAdjust="spacing" textLength="69.8687" x="731.53" y="490.2091">Backtester</text></g><!--entity pred--><g class="entity" data-qualified-name="BE.svc.pred" data-source-line="58" id="ent0018"><rect fill="#F8F9FA" height="35.1328" rx="4" ry="4" style="stroke:#DEE2E6;stroke-width:1;" width="78.5889" x="861.71" y="460.5694"/><text fill="#212529" font-family="'Segoe UI'" font-size="13" lengthAdjust="spacing" textLength="58.5889" x="871.71" y="482.6363">Predictor</text></g><!--entity qexp--><g class="entity" data-qualified-name="BE.svc.qexp" data-source-line="59" id="ent0019"><rect fill="#F8F9FA" height="35.1328" rx="4" ry="4" style="stroke:#DEE2E6;stroke-width:1;" width="101.6055" x="795.2" y="609.8394"/><text fill="#212529" font-family="'Segoe UI'" font-size="13" lengthAdjust="spacing" textLength="81.6055" x="805.2" y="631.9063">QlibExporter</text></g><!--entity de--><g class="entity" data-qualified-name="BE.svc.de" data-source-line="60" id="ent0020"><rect fill="#F8F9FA" height="50.2656" rx="4" ry="4" style="stroke:#DEE2E6;stroke-width:1;" width="129.8145" x="932.09" y="602.2694"/><text fill="#212529" font-family="'Segoe UI'" font-size="13" lengthAdjust="spacing" textLength="109.8145" x="942.09" y="624.3363">DoubleEnsemble</text><text fill="#212529" font-family="'Segoe UI'" font-size="13" lengthAdjust="spacing" textLength="81.4976" x="942.09" y="639.4691">(ICDM 2020)</text></g><!--entity sync--><g class="entity" data-qualified-name="BE.svc.sync" data-source-line="61" id="ent0021"><rect fill="#F8F9FA" height="35.1328" rx="4" ry="4" style="stroke:#DEE2E6;stroke-width:1;" width="99.3774" x="975.31" y="460.5694"/><text fill="#212529" font-family="'Segoe UI'" font-size="13" lengthAdjust="spacing" textLength="79.3774" x="985.31" y="482.6363">SyncService</text></g><!--entity factors--><g class="entity" data-qualified-name="BE.repo.factors" data-source-line="65" id="ent0023"><rect fill="#F8F9FA" height="50.2656" rx="4" ry="4" style="stroke:#DEE2E6;stroke-width:1;" width="134.8418" x="673.58" y="889.7994"/><text fill="#212529" font-family="'Segoe UI'" font-size="13" lengthAdjust="spacing" textLength="114.8418" x="683.58" y="911.8663">Factor Definitions</text><text fill="#212529" font-family="'Segoe UI'" font-size="13" lengthAdjust="spacing" textLength="84.6968" x="683.58" y="926.9991">~300 factors</text></g><!--entity dal--><g class="entity" data-qualified-name="BE.repo.dal" data-source-line="66" id="ent0024"><rect fill="#F8F9FA" height="50.2656" rx="4" ry="4" style="stroke:#DEE2E6;stroke-width:1;" width="112.1172" x="684.94" y="769.5394"/><text fill="#212529" font-family="'Segoe UI'" font-size="13" lengthAdjust="spacing" textLength="79.9043" x="694.94" y="791.6063">Data Access</text><text fill="#212529" font-family="'Segoe UI'" font-size="13" lengthAdjust="spacing" textLength="92.1172" x="694.94" y="806.7391">(SQLAlchemy)</text></g><!--entity twse--><g class="entity" data-qualified-name="BE.adapt.twse" data-source-line="70" id="ent0026"><rect fill="#F8F9FA" height="50.2656" rx="4" ry="4" style="stroke:#DEE2E6;stroke-width:1;" width="75.2881" x="1241.36" y="602.2694"/><text fill="#212529" font-family="'Segoe UI'" font-size="13" lengthAdjust="spacing" textLength="37.2607" x="1251.36" y="624.3363">TWSE</text><text fill="#212529" font-family="'Segoe UI'" font-size="13" lengthAdjust="spacing" textLength="55.2881" x="1251.36" y="639.4691">OpenAPI</text></g><!--entity fm--><g class="entity" data-qualified-name="BE.adapt.fm" data-source-line="71" id="ent0027"><rect fill="#F8F9FA" height="50.2656" rx="4" ry="4" style="stroke:#DEE2E6;stroke-width:1;" width="70.6479" x="1351.68" y="602.2694"/><text fill="#212529" font-family="'Segoe UI'" font-size="13" lengthAdjust="spacing" textLength="50.6479" x="1361.68" y="624.3363">FinMind</text><text fill="#212529" font-family="'Segoe UI'" font-size="13" lengthAdjust="spacing" textLength="20.5664" x="1361.68" y="639.4691">API</text></g><!--entity yf--><g class="entity" data-qualified-name="BE.adapt.yf" data-source-line="72" id="ent0028"><rect fill="#F8F9FA" height="35.1328" rx="4" ry="4" style="stroke:#DEE2E6;stroke-width:1;" width="75.4722" x="1131.26" y="609.8394"/><text fill="#212529" font-family="'Segoe UI'" font-size="13" lengthAdjust="spacing" textLength="55.4722" x="1141.26" y="631.9063">yfinance</text></g><!--entity db--><g class="entity" data-qualified-name="db" data-source-line="100" id="ent0048"><path d="M1477.93,895.2994 C1477.93,885.2994 1527.9964,885.2994 1527.9964,885.2994 C1527.9964,885.2994 1578.0628,885.2994 1578.0628,895.2994 L1578.0628,934.565 C1578.0628,944.565 1527.9964,944.565 1527.9964,944.565 C1527.9964,944.565 1477.93,944.565 1477.93,934.565 L1477.93,895.2994" fill="#FFF3CD" style="stroke:#FFCA2C;stroke-width:1;"/><path d="M1477.93,895.2994 C1477.93,905.2994 1527.9964,905.2994 1527.9964,905.2994 C1527.9964,905.2994 1578.0628,905.2994 1578.0628,895.2994" fill="none" style="stroke:#FFCA2C;stroke-width:1;"/><text fill="#000000" font-family="'Segoe UI'" font-size="13" lengthAdjust="spacing" textLength="42.4341" x="1487.93" y="921.3663">SQLite</text><text fill="#000000" font-family="'Segoe UI'" font-size="13" lengthAdjust="spacing" textLength="80.1328" x="1487.93" y="936.4991">(WAL mode)</text></g><!--entity qlib--><g class="entity" data-qualified-name="qlib" data-source-line="101" id="ent0049"><path d="M1477.96,775.0394 C1477.96,765.0394 1514.9978,765.0394 1514.9978,765.0394 C1514.9978,765.0394 1552.0357,765.0394 1552.0357,775.0394 L1552.0357,814.305 C1552.0357,824.305 1514.9978,824.305 1514.9978,824.305 C1514.9978,824.305 1477.96,824.305 1477.96,814.305 L1477.96,775.0394" fill="#FFF3CD" style="stroke:#FFCA2C;stroke-width:1;"/><path d="M1477.96,775.0394 C1477.96,785.0394 1514.9978,785.0394 1514.9978,785.0394 C1514.9978,785.0394 1552.0357,785.0394 1552.0357,775.0394" fill="none" style="stroke:#FFCA2C;stroke-width:1;"/><text fill="#000000" font-family="'Segoe UI'" font-size="13" lengthAdjust="spacing" textLength="54.0757" x="1487.96" y="801.1063">Qlib .bin</text><text fill="#000000" font-family="'Segoe UI'" font-size="13" lengthAdjust="spacing" textLength="49.1118" x="1487.96" y="816.2391">exports</text></g><!--entity c_twse--><g class="entity" data-qualified-name="c_twse" data-source-line="107" id="ent0053"><path d="M1701.4356,780.1175 C1704.5647,773.3334 1710.7859,772.7644 1714.923,779.0796 C1718.7439,773.164 1722.9637,771.781 1728.192,777.4704 C1732.1448,772.7896 1736.3709,772.2398 1739.3332,778.4807 C1745.66,771.6658 1750.0838,773.9253 1753.6456,781.2746 C1760.8218,785.6061 1761.2099,791.063 1754.5718,796.2489 C1761.2226,800.6865 1759.819,807.9037 1753.248,811.1682 C1749.849,817.7012 1745.8762,818.8726 1740.5822,813.1221 C1737.4154,819.8217 1732.5063,821.034 1727.065,815.6708 C1721.5847,821.9678 1717.3526,820.6571 1713.9756,813.608 C1708.61,818.1506 1703.7001,816.4572 1701.894,809.7763 C1693.9837,808.823 1691.7963,803.67 1694.912,796.7891 C1688.0273,787.8091 1691.872,782.6611 1701.4356,780.1175" fill="#E8F4FD" style="stroke:#0D6EFD;stroke-width:1;"/><text fill="#000000" font-family="'Segoe UI'" font-size="13" lengthAdjust="spacing" textLength="37.2607" x="1707.37" y="799.1763">TWSE</text></g><!--entity c_fm--><g class="entity" data-qualified-name="c_fm" data-source-line="108" id="ent0054"><path d="M1803.2586,780.479 C1807.7758,772.666 1815.138,772.2372 1820.8805,778.9973 C1823.9572,771.1545 1830.8177,770.2471 1835.4684,777.4735 C1842.0699,770.7596 1847.3601,770.5935 1851.3636,780.0303 C1856.7832,772.9966 1864.059,771.8695 1868.634,780.9363 C1877.4088,783.6814 1878.3838,790.1794 1871.4021,795.8492 C1877.6009,801.2003 1875.3252,807.5654 1868.2524,809.9524 C1866.4733,815.206 1861.6754,816.1382 1858.0991,811.8685 C1856.5655,818.4935 1852.8162,820.3653 1847.051,816.2021 C1844.8805,823.036 1840.085,823.4842 1835.7022,818.2894 C1831.3672,821.461 1826.4727,820.3685 1825.8002,814.3453 C1822.3065,819.087 1817.0492,818.8367 1814.5179,813.29 C1809.97,817.8994 1805.4686,815.0623 1804.3765,809.7557 C1794.6849,808.5838 1791.9694,803.6582 1796.2599,794.865 C1790.8106,786.8494 1794.015,781.3466 1803.2586,780.479" fill="#E8F4FD" style="stroke:#0D6EFD;stroke-width:1;"/><text fill="#000000" font-family="'Segoe UI'" font-size="13" lengthAdjust="spacing" textLength="50.6479" x="1809.68" y="799.1763">FinMind</text></g><!--entity c_yf--><g class="entity" data-qualified-name="c_yf" data-source-line="109" id="ent0055"><path d="M1596.4466,782.3001 C1599.0902,775.9558 1604.7456,775.6687 1609.0684,780.3836 C1611.6817,773.6381 1618.4086,771.2418 1623.5511,777.5851 C1628.752,772.4453 1633.9699,772.9175 1637.5353,779.5309 C1641.3388,773.7806 1647.6096,773.1444 1650.7208,780.2414 C1659.0698,784.6453 1658.0721,789.4294 1651.7789,794.8909 C1657.8887,799.8104 1658.5004,807.7736 1649.8541,810.9214 C1646.3608,816.999 1641.546,817.7087 1636.6636,812.5524 C1634.1264,819.9766 1627.0795,820.7829 1622.0586,815.3803 C1617.0897,821.2539 1612.5178,819.3609 1609.7709,813.1255 C1604.0896,818.7829 1598.0348,818.4685 1595.365,810.0446 C1587.6659,806.2132 1587.3924,801.7877 1592.9565,795.7254 C1588.3164,789.7086 1589.0777,785.195 1596.4466,782.3001" fill="#E8F4FD" style="stroke:#0D6EFD;stroke-width:1;"/><text fill="#000000" font-family="'Segoe UI'" font-size="13" lengthAdjust="spacing" textLength="40.0537" x="1601.97" y="799.1763">Yahoo</text></g><!--link dashboard to charts--><g class="link" data-entity-1="ent0003" data-entity-2="ent0004" data-link-type="dependency" data-source-line="42" id="lnk7"><path d="M315.39,145.1094 C279.04,156.4794 234.85,174.1394 201,199.7394 C160.39,230.4494 131.2345,277.3837 116.5845,303.9837" fill="none" id="dashboard-to-charts" style="stroke:#555555;stroke-width:1.5;"/><polygon fill="#555555" points="113.69,309.2394,121.5356,303.2856,116.1021,304.8597,114.5281,299.4262,113.69,309.2394" style="stroke:#555555;stroke-width:1.5;"/></g><!--link dashboard to store--><g class="link" data-entity-1="ent0003" data-entity-2="ent0005" data-link-type="dependency" data-source-line="43" id="lnk8"><path d="M373.79,145.0294 C353.39,182.3794 307.4474,266.4843 287.0574,303.7943" fill="none" id="dashboard-to-store" style="stroke:#555555;stroke-width:1.5;"/><polygon fill="#555555" points="284.18,309.0594,292.0061,303.08,286.5778,304.6718,284.986,299.2436,284.18,309.0594" style="stroke:#555555;stroke-width:1.5;"/></g><!--link dashboard to wsc--><g class="link" data-entity-1="ent0003" data-entity-2="ent0006" data-link-type="dependency" data-source-line="44" id="lnk9"><path d="M400.98,145.0894 C408.51,153.2794 416.53,163.7194 421,174.7394 C439.6,220.6294 438.3537,274.6373 436.1337,303.2773" fill="none" id="dashboard-to-wsc" style="stroke:#555555;stroke-width:1.5;"/><polygon fill="#555555" points="435.67,309.2594,440.3536,300.5954,436.0564,304.2743,432.3775,299.9772,435.67,309.2594" style="stroke:#555555;stroke-width:1.5;"/></g><!--link api to trainer--><g class="link" data-entity-1="ent0012" data-entity-2="ent0016" data-link-type="dependency" data-source-line="75" id="lnk29"><path d="M730.27,352.1894 C708.95,379.8594 677.9713,420.066 656.5813,447.836" fill="none" id="api-to-trainer" style="stroke:#555555;stroke-width:1.5;"/><polygon fill="#555555" points="652.92,452.5894,661.5809,447.9002,655.9711,448.6282,655.2431,443.0184,652.92,452.5894" style="stroke:#555555;stroke-width:1.5;"/></g><!--link api to wf--><g class="link" data-entity-1="ent0012" data-entity-2="ent0017" data-link-type="dependency" data-source-line="76" id="lnk30"><path d="M753.07,352.1894 C757.71,379.8594 764.2491,418.9018 768.8991,446.6718" fill="none" id="api-to-wf" style="stroke:#555555;stroke-width:1.5;"/><polygon fill="#555555" points="769.89,452.5894,772.3487,443.0524,769.0643,447.658,764.4586,444.3735,769.89,452.5894" style="stroke:#555555;stroke-width:1.5;"/></g><!--link api to pred--><g class="link" data-entity-1="ent0012" data-entity-2="ent0018" data-link-type="dependency" data-source-line="77" id="lnk31"><path d="M774.77,352.2794 C784.16,360.4394 795.14,369.1894 806,376.0094 C821.67,385.8494 829.83,381.1194 844,393.0094 C866.44,411.8294 881.036,436.2632 890.436,454.8832" fill="none" id="api-to-pred" style="stroke:#555555;stroke-width:1.5;"/><polygon fill="#555555" points="893.14,460.2394,892.6548,450.4025,890.8867,455.7759,885.5133,454.0078,893.14,460.2394" style="stroke:#555555;stroke-width:1.5;"/></g><!--link api to sync--><g class="link" data-entity-1="ent0012" data-entity-2="ent0021" data-link-type="dependency" data-source-line="78" id="lnk32"><path d="M771.79,352.4994 C781.45,361.3994 793.39,370.5794 806,376.0094 C837.22,389.4394 928.25,376.5694 958,393.0094 C985.78,408.3594 1003.3813,435.128 1013.9713,454.938" fill="none" id="api-to-sync" style="stroke:#555555;stroke-width:1.5;"/><polygon fill="#555555" points="1016.8,460.2294,1016.0846,450.4065,1014.4428,455.8199,1009.0294,454.1781,1016.8,460.2294" style="stroke:#555555;stroke-width:1.5;"/></g><!--link ws to wsc--><g class="link" data-entity-1="ent0013" data-entity-2="ent0006" data-link-type="dependency" data-source-line="79" id="lnk33"><path d="M581.18,326.8694 C554.73,326.8694 534.28,326.8694 507.82,326.8694" fill="none" id="ws-to-wsc" style="stroke:#555555;stroke-width:1.5;"/><polygon fill="#555555" points="501.82,326.8694,510.82,330.8694,506.82,326.8694,510.82,322.8694,501.82,326.8694" style="stroke:#555555;stroke-width:1.5;"/></g><!--link trainer to de--><g class="link" data-entity-1="ent0016" data-entity-2="ent0020" data-link-type="dependency" data-source-line="81" id="lnk34"><path d="M686.87,498.2894 C692.62,500.0994 698.41,501.7994 704,503.2694 C726.95,509.3194 893.04,531.1494 914,542.2694 C941,556.5994 961.003,578.0159 976.083,597.3759" fill="none" id="trainer-to-de" style="stroke:#555555;stroke-width:1.5;"/><polygon fill="#555555" points="979.77,602.1094,977.3951,592.5511,976.6975,598.1648,971.0838,597.4672,979.77,602.1094" style="stroke:#555555;stroke-width:1.5;"/></g><!--link trainer to qexp--><g class="link" data-entity-1="ent0016" data-entity-2="ent0019" data-link-type="dependency" data-source-line="82" id="lnk35"><path d="M669.01,503.4594 C712.05,533.3594 779.0722,579.9163 816.6022,605.9863" fill="none" id="trainer-to-qexp" style="stroke:#555555;stroke-width:1.5;"/><polygon fill="#555555" points="821.53,609.4094,816.4204,600.9896,817.4235,606.5568,811.8563,607.56,821.53,609.4094" style="stroke:#555555;stroke-width:1.5;"/></g><!--link wf to de--><g class="link" data-entity-1="ent0017" data-entity-2="ent0020" data-link-type="dependency" data-source-line="83" id="lnk36"><path d="M826.64,497.5194 C853.98,508.3594 887.19,523.6194 914,542.2694 C938.25,559.1494 957.5648,579.1128 973.2548,597.3328" fill="none" id="wf-to-de" style="stroke:#555555;stroke-width:1.5;"/><polygon fill="#555555" points="977.17,601.8794,974.3282,592.4494,973.9073,598.0906,968.2661,597.6697,977.17,601.8794" style="stroke:#555555;stroke-width:1.5;"/></g><!--link wf to qexp--><g class="link" data-entity-1="ent0017" data-entity-2="ent0019" data-link-type="dependency" data-source-line="84" id="lnk37"><path d="M785.89,503.4594 C800.51,533.3594 822.304,577.9494 835.054,604.0194" fill="none" id="wf-to-qexp" style="stroke:#555555;stroke-width:1.5;"/><polygon fill="#555555" points="837.69,609.4094,837.3292,599.5671,835.4933,604.9178,830.1427,603.0818,837.69,609.4094" style="stroke:#555555;stroke-width:1.5;"/></g><!--link pred to de--><g class="link" data-entity-1="ent0018" data-entity-2="ent0020" data-link-type="dependency" data-source-line="85" id="lnk38"><path d="M912.01,496.0294 C928.95,522.0194 958.2235,566.913 977.7535,596.873" fill="none" id="pred-to-de" style="stroke:#555555;stroke-width:1.5;"/><polygon fill="#555555" points="981.03,601.8994,979.4661,592.1755,978.2996,597.7107,972.7643,596.5442,981.03,601.8994" style="stroke:#555555;stroke-width:1.5;"/></g><!--link sync to twse--><g class="link" data-entity-1="ent0021" data-entity-2="ent0026" data-link-type="dependency" data-source-line="87" id="lnk39"><path d="M1075.12,485.4394 C1118.2,492.9394 1180.12,508.9494 1224,542.2694 C1244.43,557.7894 1256.9065,577.8334 1266.0665,596.6734" fill="none" id="sync-to-twse" style="stroke:#555555;stroke-width:1.5;"/><polygon fill="#555555" points="1268.69,602.0694,1268.352,592.2263,1266.5037,597.5727,1261.1573,595.7244,1268.69,602.0694" style="stroke:#555555;stroke-width:1.5;"/></g><!--link sync to fm--><g class="link" data-entity-1="ent0021" data-entity-2="ent0027" data-link-type="dependency" data-source-line="88" id="lnk40"><path d="M1075.06,484.5494 C1151.45,493.5994 1292.63,513.6594 1334,542.2694 C1355.01,556.8094 1367.0276,577.1657 1375.4676,596.3857" fill="none" id="sync-to-fm" style="stroke:#555555;stroke-width:1.5;"/><polygon fill="#555555" points="1377.88,601.8794,1377.9238,592.0306,1375.8697,597.3013,1370.5989,595.2472,1377.88,601.8794" style="stroke:#555555;stroke-width:1.5;"/></g><!--link sync to yf--><g class="link" data-entity-1="ent0021" data-entity-2="ent0028" data-link-type="dependency" data-source-line="89" id="lnk41"><path d="M1043.21,495.9994 C1056.62,508.5594 1075.2,526.2294 1091,542.2694 C1113.36,564.9794 1134.2219,587.7135 1149.7319,604.9135" fill="none" id="sync-to-yf" style="stroke:#555555;stroke-width:1.5;"/><polygon fill="#555555" points="1153.75,609.3694,1150.6935,600.0068,1150.4016,605.6561,1144.7523,605.3642,1153.75,609.3694" style="stroke:#555555;stroke-width:1.5;"/></g><!--link trainer to dal--><g class="link" data-entity-1="ent0016" data-entity-2="ent0024" data-link-type="dependency" data-source-line="91" id="lnk42"><path d="M639.23,503.6994 C648.47,545.2694 669.33,631.7794 697,701.5394 C706.28,724.9394 716.0806,745.371 725.4006,763.701" fill="none" id="trainer-to-dal" style="stroke:#555555;stroke-width:1.5;"/><polygon fill="#555555" points="728.12,769.0494,727.6065,759.2139,725.8538,764.5924,720.4753,762.8398,728.12,769.0494" style="stroke:#555555;stroke-width:1.5;"/></g><!--link wf to dal--><g class="link" data-entity-1="ent0017" data-entity-2="ent0024" data-link-type="dependency" data-source-line="92" id="lnk43"><path d="M736.59,503.5194 C727.11,511.7294 718.17,521.7794 713,533.2694 C676.83,613.7294 709.343,716.204 728.283,763.834" fill="none" id="wf-to-dal" style="stroke:#555555;stroke-width:1.5;"/><polygon fill="#555555" points="730.5,769.4094,730.8914,759.5683,728.6525,764.7632,723.4575,762.5243,730.5,769.4094" style="stroke:#555555;stroke-width:1.5;"/></g><!--link pred to dal--><g class="link" data-entity-1="ent0018" data-entity-2="ent0024" data-link-type="dependency" data-source-line="93" id="lnk44"><path d="M862.25,496.1094 C856.18,498.5994 849.95,501.0694 844,503.2694 C802.88,518.4994 776.48,498.3094 750,533.2694 C696.47,603.9494 718.0358,713.2551 731.8358,763.3251" fill="none" id="pred-to-dal" style="stroke:#555555;stroke-width:1.5;"/><polygon fill="#555555" points="733.43,769.1094,734.8949,759.3701,732.1015,764.2891,727.1824,761.4957,733.43,769.1094" style="stroke:#555555;stroke-width:1.5;"/></g><!--link sync to dal--><g class="link" data-entity-1="ent0021" data-entity-2="ent0024" data-link-type="dependency" data-source-line="94" id="lnk45"><path d="M980.22,496.1894 C972.85,498.7294 965.25,501.1894 958,503.2694 C879.32,525.8594 833.9,482.4794 778,542.2694 C747.57,574.8194 742.2306,706.5302 741.2806,763.1802" fill="none" id="sync-to-dal" style="stroke:#555555;stroke-width:1.5;"/><polygon fill="#555555" points="741.18,769.1794,745.3303,760.2477,741.2638,764.1801,737.3315,760.1136,741.18,769.1794" style="stroke:#555555;stroke-width:1.5;"/></g><!--link qexp to dal--><g class="link" data-entity-1="ent0019" data-entity-2="ent0024" data-link-type="dependency" data-source-line="95" id="lnk46"><path d="M835.16,645.4694 C816.45,674.9094 781.2674,730.2849 759.7374,764.1749" fill="none" id="qexp-to-dal" style="stroke:#555555;stroke-width:1.5;"/><polygon fill="#555555" points="756.52,769.2394,764.7224,763.7877,759.2012,765.019,757.9698,759.4978,756.52,769.2394" style="stroke:#555555;stroke-width:1.5;"/></g><!--link dal to factors--><g class="link" data-entity-1="ent0024" data-entity-2="ent0023" data-link-type="dependency" data-source-line="97" id="lnk47"><path d="M741,820.1794 C741,840.4694 741,863.1794 741,883.4594" fill="none" id="dal-to-factors" style="stroke:#555555;stroke-width:1.5;"/><polygon fill="#555555" points="741,889.4594,745,880.4594,741,884.4594,737,880.4594,741,889.4594" style="stroke:#555555;stroke-width:1.5;"/></g><!--link dal to db--><g class="link" data-entity-1="ent0024" data-entity-2="ent0048" data-link-type="dependency" data-source-line="103" id="lnk50"><path d="M797.28,804.1294 C944.16,826.1994 1331.4366,884.3978 1471.5866,905.4578" fill="none" id="dal-to-db" style="stroke:#555555;stroke-width:1.5;"/><polygon fill="#555555" points="1477.52,906.3494,1469.2143,901.0564,1472.5755,905.6064,1468.0255,908.9676,1477.52,906.3494" style="stroke:#555555;stroke-width:1.5;"/></g><!--link qexp to qlib--><g class="link" data-entity-1="ent0019" data-entity-2="ent0049" data-link-type="dependency" data-source-line="104" id="lnk51"><path d="M865.51,645.3394 C878.65,655.8794 896.85,668.8394 915,676.5394 C1115.81,761.6594 1374.862,785.22 1471.622,791.35" fill="none" id="qexp-to-qlib" style="stroke:#555555;stroke-width:1.5;"/><polygon fill="#555555" points="1477.61,791.7294,1468.8809,787.1683,1472.62,791.4132,1468.3751,795.1523,1477.61,791.7294" style="stroke:#555555;stroke-width:1.5;"/></g><!--link de to qlib--><g class="link" data-entity-1="ent0020" data-entity-2="ent0049" data-link-type="dependency" data-source-line="105" id="lnk52"><path d="M1053.87,652.9794 C1073.12,660.9294 1094.84,669.4994 1115,676.5394 C1246.5,722.4794 1400.6036,764.0475 1471.8436,782.5975" fill="none" id="de-to-qlib" style="stroke:#555555;stroke-width:1.5;stroke-dasharray:7,7;"/><polygon fill="#555555" points="1477.65,784.1094,1469.9484,777.9706,1472.8113,782.8494,1467.9325,785.7124,1477.65,784.1094" style="stroke:#555555;stroke-width:1.5;"/><text fill="#000000" font-family="'Segoe UI'" font-size="13" lengthAdjust="spacing" textLength="94.4595" x="1180" y="697.6063">reads features</text></g><!--link twse to c_twse--><g class="link" data-entity-1="ent0026" data-entity-2="ent0053" data-link-type="dependency" data-source-line="111" id="lnk56"><path d="M1299.83,652.8194 C1309.23,662.0394 1321.12,671.5094 1334,676.5394 C1366.51,689.2294 1615.67,671.3894 1648,684.5394 C1685.54,699.7994 1705.9045,739.1377 1716.4945,766.3577" fill="none" id="twse-to-c_twse" style="stroke:#555555;stroke-width:1.5;"/><polygon fill="#555555" points="1718.67,771.9494,1719.1346,762.1115,1716.8571,767.2896,1711.679,765.0121,1718.67,771.9494" style="stroke:#555555;stroke-width:1.5;"/></g><!--link fm to c_fm--><g class="link" data-entity-1="ent0027" data-entity-2="ent0054" data-link-type="dependency" data-source-line="112" id="lnk57"><path d="M1422.55,632.1394 C1507.55,641.6194 1719.7,668.8394 1777,709.5394 C1799.27,725.3594 1813.0601,747.2211 1822.6401,766.4111" fill="none" id="fm-to-c_fm" style="stroke:#555555;stroke-width:1.5;"/><polygon fill="#555555" points="1825.32,771.7794,1824.8789,761.9404,1823.0867,767.3058,1817.7213,765.5136,1825.32,771.7794" style="stroke:#555555;stroke-width:1.5;"/></g><!--link yf to c_yf--><g class="link" data-entity-1="ent0028" data-entity-2="ent0055" data-link-type="dependency" data-source-line="113" id="lnk58"><path d="M1182.96,645.4094 C1193.09,656.4094 1207.81,669.8794 1224,676.5394 C1250.77,687.5494 1325.17,681.9894 1354,684.5394 C1450.26,693.0694 1488.44,657.6994 1570,709.5394 C1592.61,723.9094 1604.7743,746.4256 1612.5443,766.1856" fill="none" id="yf-to-c_yf" style="stroke:#555555;stroke-width:1.5;"/><polygon fill="#555555" points="1614.74,771.7694,1615.1691,761.9299,1612.9103,767.1162,1607.724,764.8574,1614.74,771.7694" style="stroke:#555555;stroke-width:1.5;"/></g><!--link dashboard to api--><g class="link" data-entity-1="ent0003" data-entity-2="ent0012" data-link-type="dependency" data-source-line="115" id="lnk59"><path d="M459.79,138.0594 C539.38,149.6594 656.98,171.0194 692,199.7394 C723.49,225.5694 736.9686,266.6322 743.3586,295.3922" fill="none" id="dashboard-to-api" style="stroke:#555555;stroke-width:1.5;"/><polygon fill="#555555" points="744.66,301.2494,746.6127,291.596,743.5755,296.3684,738.8032,293.3312,744.66,301.2494" style="stroke:#555555;stroke-width:1.5;"/><text fill="#000000" font-family="'Segoe UI'" font-size="13" lengthAdjust="spacing" textLength="33.4966" x="676" y="187.8063">HTTP</text></g><!--link store to api--><g class="link" data-entity-1="ent0005" data-entity-2="ent0012" data-link-type="dependency" data-source-line="116" id="lnk60"><path d="M280.31,309.1994 C289.41,282.4394 310.82,232.5294 349,211.6794 C415.9,175.1394 627.24,171.4694 692,211.6794 C723.47,231.2194 736.7333,268.0048 743.1333,295.5748" fill="none" id="store-to-api" style="stroke:#555555;stroke-width:1.5;"/><polygon fill="#555555" points="744.49,301.4194,746.3513,291.748,743.3594,296.5489,738.5585,293.557,744.49,301.4194" style="stroke:#555555;stroke-width:1.5;"/><text fill="#000000" font-family="'Segoe UI'" font-size="13" lengthAdjust="spacing" textLength="33.4966" x="379.5" y="187.8063">HTTP</text></g><?plantuml-src TLHTRzis57tNh-2ybtP34jkfEwSF0nHBn08aQrfv2BPv62YIiWdBf4hIKRqX--sx_90YEwbVpFl1S-yvbxhVsGtVSTJKHCZ4R8LiY2OxL1AwNMkrbsoXQgNHzzZ_1XcCLsHVMwoa_PK0mgZWQyNHRpUZrvCAyGz7ayj1aAfTeoI7a3tK76bEBP7hcWzIOWTQSetc0x_P4APQ8TUe8hKPtaYrLctiUUP_fy7bHj2jvCQWoVaiUQqVz6-2qFKB1URu2gSkeZJZEdgpF9_cxy7hE4RVT3ATJQ-Ifo5u0t1apRy17SGzWKwpwzbrTWpzxcesdlqKVK6tKjNik1OZbfJ4VBlOvI8xBORn8fqkZd5ehVRiTP1yZj_X5o3Zx7qENW2nma9hNsfHdjdsp6e2II0_tGWBOzvhdYIT8YEiWGkNR8I8GJW7y4iynPal_ETdJgX5apdAYDcKYcZsbqjZdHLow8PeQz05kdr02t_sMS7jKlxO6tXS31LMQUvZnfrSw86NXQ9RRj6Y5Z1z7sqDJI3Obq5dPpy_mnsxEwHZhqDu6h1q4W99z0OJOzFxcxUUxZNGnHCypw-0Bc3qwJSWYQu8vSRd2NVqYZY-UR540B6I5wGH5u-JYnzyqs24X9uIPBGc4WgXWiBtJinAlha_C2Aje6-37C4FIKz7VHHSFugk2_D8knxk5EFrKiFMu7ebVqGV6xkNn4FPu8sja7gBbMv1bfLq6bXkW5degGevzvepGK55xst02lvFy7pohutItOKl_6iJGfdQbpNFfU4x-0SsDuli3at7qt6WmtYaUv0qKWWqmNx1yJDlb15GNqIU6XmTKKnSPoZZbP322YL1k_yknsFOF2uGr8tds1jyVYYb89gJkVXqczPEt4FiZDGl6aWPQO1ZA4wSqLLVFXJvIdvik8Hv1tLR4xbX8U-415cxKBKBWGEqIcHaVAYwSl0y_Cjyda_dyOFeZAX_PqR5MjE_Qh0YX7TvgOUEEAMsUWx7Suou2bqCJ5SXD1QezRRdqrj0vBIobxAhuurdQ6_sbuFfwlUc_sBhK2YE3sJgT-S81WVB2YRuaDwY7JptyCMoSf3ZNYWwBuLSIUuVQXYXstiEAg33ZRwmZp2Epi_36Ns0nqOOp8uJjnPDaeIjEtAJzs3qRwzBTCUXnmWe5Fs_aurIqUkKSdV2qWhNgrsquCgXYcUNUBortDG_e5-Mo_l4hxKJv_y0?></g></svg>