<svg xmlns="http://www.w3.org/2000/svg" xmlns:xlink="http://www.w3.org/1999/xlink" contentStyleType="text/css" data-diagram-type="ACTIVITY" height="1025px" preserveAspectRatio="none" style="width:439px;height:1025px;background:#FFFFFF;" version="1.1" viewBox="0 0 439 1025" width="439px" zoomAndPan="magnify"><?plantuml 1.2026.3beta4?><defs/><g><g class="title" data-source-line="18"><text fill="#000000" font-family="'Segoe UI'" font-size="22" font-weight="700" lengthAdjust="spacing" textLength="203.0596" x="117.2725" y="35.4209">Trading Pipeline</text></g><ellipse cx="217.8022" cy="66.6094" fill="#FFFFFF" rx="10" ry="10" style="stroke:#000000;stroke-width:1;"/><rect fill="#E3F2FD" height="157.1875" rx="4" ry="4" style="stroke:#000000;stroke-width:1;" width="385.0645" x="25.27" y="86.6094"/><path d="M72.478,86.6094 L72.478,95.9063 L62.478,105.9063 L25.27,105.9063" fill="none" style="stroke:#000000;stroke-width:1;"/><text fill="#000000" font-family="'Segoe UI'" font-size="14" font-weight="700" lengthAdjust="spacing" textLength="37.208" x="28.27" y="100.6045">Data</text><rect fill="#F8F9FA" height="52.5938" rx="4" ry="4" style="stroke:#DEE2E6;stroke-width:1;" width="365.0645" x="35.27" y="122.9063"/><text fill="#212529" font-family="'Segoe UI'" font-size="14" lengthAdjust="spacing" textLength="219.8369" x="45.27" y="145.9014">Sync TWSE / FinMind / yfinance</text><text fill="#212529" font-family="'Segoe UI'" font-size="14" lengthAdjust="spacing" textLength="345.0645" x="45.27" y="162.1982">(OHLCV, PER/PBR, institutional, margin, revenue)</text><rect fill="#F8F9FA" height="36.2969" rx="4" ry="4" style="stroke:#DEE2E6;stroke-width:1;" width="221.6123" x="106.9961" y="195.5"/><text fill="#212529" font-family="'Segoe UI'" font-size="14" lengthAdjust="spacing" textLength="54.5234" x="116.9961" y="218.4951">Store in</text><text fill="#212529" font-family="'Segoe UI'" font-size="14" font-weight="700" lengthAdjust="spacing" textLength="51.8916" x="175.9697" y="218.4951">SQLite</text><text fill="#212529" font-family="'Segoe UI'" font-size="14" lengthAdjust="spacing" textLength="86.2969" x="232.3115" y="218.4951">(WAL mode)</text><rect fill="#F1F8E9" height="173.4844" rx="4" ry="4" style="stroke:#000000;stroke-width:1;" width="302.3633" x="66.6206" y="253.7969"/><path d="M146.5181,253.7969 L146.5181,263.0938 L136.5181,273.0938 L66.6206,273.0938" fill="none" style="stroke:#000000;stroke-width:1;"/><text fill="#000000" font-family="'Segoe UI'" font-size="14" font-weight="700" lengthAdjust="spacing" textLength="69.8975" x="69.6206" y="267.792">Features</text><rect fill="#F8F9FA" height="36.2969" rx="4" ry="4" style="stroke:#DEE2E6;stroke-width:1;" width="187.6787" x="123.9629" y="290.0938"/><text fill="#212529" font-family="'Segoe UI'" font-size="14" lengthAdjust="spacing" textLength="167.6787" x="133.9629" y="313.0889">QlibExporter &#8594; .bin files</text><rect fill="#F8F9FA" height="68.8906" rx="4" ry="4" style="stroke:#DEE2E6;stroke-width:1;" width="282.3633" x="76.6206" y="346.3906"/><text fill="#212529" font-family="'Segoe UI'" font-size="14" lengthAdjust="spacing" textLength="63.8408" x="86.6206" y="369.3857">Compute</text><text fill="#212529" font-family="'Segoe UI'" font-size="14" font-weight="700" lengthAdjust="spacing" textLength="101.2129" x="154.9116" y="369.3857">~300 factors</text><text fill="#212529" font-family="'Segoe UI'" font-size="14" lengthAdjust="spacing" textLength="262.3633" x="86.6206" y="385.6826">Alpha158 (109) + Taiwan chips (107)</text><text fill="#212529" font-family="'Segoe UI'" font-size="14" lengthAdjust="spacing" textLength="247.9121" x="86.6206" y="401.9795">+ interaction (50) + enhanced (37)</text><rect fill="#FFF3E0" height="157.1875" rx="4" ry="4" style="stroke:#000000;stroke-width:1;" width="413.6045" x="11" y="437.2813"/><path d="M86.4541,437.2813 L86.4541,446.5781 L76.4541,456.5781 L11,456.5781" fill="none" style="stroke:#000000;stroke-width:1;"/><text fill="#000000" font-family="'Segoe UI'" font-size="14" font-weight="700" lengthAdjust="spacing" textLength="65.4541" x="14" y="451.2764">Training</text><rect fill="#F8F9FA" height="36.2969" rx="4" ry="4" style="stroke:#DEE2E6;stroke-width:1;" width="393.6045" x="21" y="473.5781"/><text fill="#212529" font-family="'Segoe UI'" font-size="14" lengthAdjust="spacing" textLength="101.2334" x="31" y="496.5732">Walk-Forward:</text><text fill="#212529" font-family="'Segoe UI'" font-size="14" font-weight="700" lengthAdjust="spacing" textLength="81.9287" x="136.6836" y="496.5732">504d train</text><text fill="#212529" font-family="'Segoe UI'" font-size="14" lengthAdjust="spacing" textLength="181.542" x="223.0625" y="496.5732">/ 100d valid / 7d embargo</text><rect fill="#F8F9FA" height="52.5938" rx="4" ry="4" style="stroke:#DEE2E6;stroke-width:1;" width="313.6104" x="60.9971" y="529.875"/><text fill="#212529" font-family="'Segoe UI'" font-size="14" lengthAdjust="spacing" textLength="235.375" x="70.9971" y="552.8701">DoubleEnsemble (K=3 LightGBM)</text><text fill="#212529" font-family="'Segoe UI'" font-size="14" lengthAdjust="spacing" textLength="293.6104" x="70.9971" y="569.167">+ sample reweighting + feature selection</text><rect fill="#F3E5F5" height="157.1875" rx="4" ry="4" style="stroke:#000000;stroke-width:1;" width="318.0654" x="58.7695" y="604.4688"/><path d="M149.625,604.4688 L149.625,613.7656 L139.625,623.7656 L58.7695,623.7656" fill="none" style="stroke:#000000;stroke-width:1;"/><text fill="#000000" font-family="'Segoe UI'" font-size="14" font-weight="700" lengthAdjust="spacing" textLength="80.8555" x="61.7695" y="618.4639">Prediction</text><rect fill="#F8F9FA" height="36.2969" rx="4" ry="4" style="stroke:#DEE2E6;stroke-width:1;" width="267.2832" x="84.1606" y="640.7656"/><text fill="#212529" font-family="'Segoe UI'" font-size="14" lengthAdjust="spacing" textLength="33.8311" x="94.1606" y="663.7607">Load</text><text fill="#212529" font-family="'Segoe UI'" font-size="14" font-weight="700" lengthAdjust="spacing" textLength="96.4004" x="132.4419" y="663.7607">T-1 features</text><text fill="#212529" font-family="'Segoe UI'" font-size="14" lengthAdjust="spacing" textLength="108.1514" x="233.2925" y="663.7607">(no T-day data)</text><rect fill="#F8F9FA" height="52.5938" rx="4" ry="4" style="stroke:#DEE2E6;stroke-width:1;" width="298.0654" x="68.7695" y="697.0625"/><text fill="#212529" font-family="'Segoe UI'" font-size="14" lengthAdjust="spacing" textLength="278.0654" x="78.7695" y="720.0576">Cross-sectional ranking &#8594; Top-K signals</text><text fill="#212529" font-family="'Segoe UI'" font-size="14" lengthAdjust="spacing" textLength="235.7578" x="78.7695" y="736.3545">Label: close[T+3] / close[T+1] - 1</text><rect fill="#E8F5E9" height="197.1875" rx="4" ry="4" style="stroke:#000000;stroke-width:1;" width="307.4902" x="64.0571" y="771.6563"/><path d="M157.4829,771.6563 L157.4829,780.9531 L147.4829,790.9531 L64.0571,790.9531" fill="none" style="stroke:#000000;stroke-width:1;"/><text fill="#000000" font-family="'Segoe UI'" font-size="14" font-weight="700" lengthAdjust="spacing" textLength="83.4258" x="67.0571" y="785.6514">Evaluation</text><rect fill="#F8F9FA" height="36.2969" rx="4" ry="4" style="stroke:#DEE2E6;stroke-width:1;" width="287.4902" x="74.0571" y="807.9531"/><text fill="#212529" font-family="'Segoe UI'" font-size="14" lengthAdjust="spacing" textLength="267.4902" x="84.0571" y="830.9482">Backtest: TopK / TopKDrop / HoldDrop</text><rect fill="#F8F9FA" height="36.2969" rx="4" ry="4" style="stroke:#DEE2E6;stroke-width:1;" width="272.3691" x="81.6177" y="864.25"/><text fill="#212529" font-family="'Segoe UI'" font-size="14" lengthAdjust="spacing" textLength="252.3691" x="91.6177" y="887.2451">IC analysis + regime decomposition</text><rect fill="#F8F9FA" height="36.2969" rx="4" ry="4" style="stroke:#DEE2E6;stroke-width:1;" width="279.7998" x="77.9023" y="920.5469"/><text fill="#212529" font-family="'Segoe UI'" font-size="14" lengthAdjust="spacing" textLength="259.7998" x="87.9023" y="943.542">Sharpe, MaxDD, excess return, t-stat</text><ellipse cx="217.8022" cy="999.8438" fill="none" rx="11" ry="11" style="stroke:#000000;stroke-width:1;"/><ellipse cx="217.8022" cy="999.8438" fill="#FFFFFF" rx="6" ry="6" style="stroke:#000000;stroke-width:1;"/><line style="stroke:#555555;stroke-width:1.5;" x1="217.8022" x2="217.8022" y1="175.5" y2="195.5"/><polygon fill="#555555" points="213.8022,185.5,217.8022,195.5,221.8022,185.5,217.8022,189.5" style="stroke:#555555;stroke-width:1;"/><line style="stroke:#555555;stroke-width:1.5;" x1="217.8022" x2="217.8022" y1="76.6094" y2="122.9063"/><polygon fill="#555555" points="213.8022,112.9063,217.8022,122.9063,221.8022,112.9063,217.8022,116.9063" style="stroke:#555555;stroke-width:1;"/><line style="stroke:#555555;stroke-width:1.5;" x1="217.8022" x2="217.8022" y1="326.3906" y2="346.3906"/><polygon fill="#555555" points="213.8022,336.3906,217.8022,346.3906,221.8022,336.3906,217.8022,340.3906" style="stroke:#555555;stroke-width:1;"/><line style="stroke:#555555;stroke-width:1.5;" x1="217.8022" x2="217.8022" y1="231.7969" y2="290.0938"/><polygon fill="#555555" points="213.8022,280.0938,217.8022,290.0938,221.8022,280.0938,217.8022,284.0938" style="stroke:#555555;stroke-width:1;"/><line style="stroke:#555555;stroke-width:1.5;" x1="217.8022" x2="217.8022" y1="509.875" y2="529.875"/><polygon fill="#555555" points="213.8022,519.875,217.8022,529.875,221.8022,519.875,217.8022,523.875" style="stroke:#555555;stroke-width:1;"/><line style="stroke:#555555;stroke-width:1.5;" x1="217.8022" x2="217.8022" y1="415.2813" y2="473.5781"/><polygon fill="#555555" points="213.8022,463.5781,217.8022,473.5781,221.8022,463.5781,217.8022,467.5781" style="stroke:#555555;stroke-width:1;"/><line style="stroke:#555555;stroke-width:1.5;" x1="217.8022" x2="217.8022" y1="677.0625" y2="697.0625"/><polygon fill="#555555" points="213.8022,687.0625,217.8022,697.0625,221.8022,687.0625,217.8022,691.0625" style="stroke:#555555;stroke-width:1;"/><line style="stroke:#555555;stroke-width:1.5;" x1="217.8022" x2="217.8022" y1="582.4688" y2="640.7656"/><polygon fill="#555555" points="213.8022,630.7656,217.8022,640.7656,221.8022,630.7656,217.8022,634.7656" style="stroke:#555555;stroke-width:1;"/><line style="stroke:#555555;stroke-width:1.5;" x1="217.8022" x2="217.8022" y1="844.25" y2="864.25"/><polygon fill="#555555" points="213.8022,854.25,217.8022,864.25,221.8022,854.25,217.8022,858.25" style="stroke:#555555;stroke-width:1;"/><line style="stroke:#555555;stroke-width:1.5;" x1="217.8022" x2="217.8022" y1="900.5469" y2="920.5469"/><polygon fill="#555555" points="213.8022,910.5469,217.8022,920.5469,221.8022,910.5469,217.8022,914.5469" style="stroke:#555555;stroke-width:1;"/><line style="stroke:#555555;stroke-width:1.5;" x1="217.8022" x2="217.8022" y1="749.6563" y2="807.9531"/><polygon fill="#555555" points="213.8022,797.9531,217.8022,807.9531,221.8022,797.9531,217.8022,801.9531" style="stroke:#555555;stroke-width:1;"/><line style="stroke:#555555;stroke-width:1.5;" x1="217.8022" x2="217.8022" y1="956.8438" y2="988.8438"/><polygon fill="#555555" points="213.8022,978.8438,217.8022,988.8438,221.8022,978.8438,217.8022,982.8438" style="stroke:#555555;stroke-width:1;"/><?plantuml-src RPJDSjem4CVlFCKslH022OQw0Jez46otdP0s2RGvT79Oh0Kq2CaZYH3QQOzzW3vYdwGhE-amJNonlFkVtTz-o2_yajO4XKAfQsubTO4Mrp33VBMmPgF5o2XZuMLMFdiAGNFSA9yPxJyYHpYOqC8GVFvmyBne8hyHHA_sd6w9mcobNi0SbQCzpqDYgyb2Ryy-jDPi7u3YyldVELtAVAN9EOYEuzgU5tClxwJVmVSQmDcJwdfPFni6Zx62x8CrITDE-fgjWV_1reawSQVFjaJYscXnzaoZkgDaJx0VCSj6mywezgDMyz8hWgb54HfmAGjIKXCJUxI-LcDeLaYZuQ3HID1Zet40BzDkricIieJ1PATpcDvCKZY1JEeBgGMVTdEfKUV4Ylgdz-FHboPSfjSdbsVNJP3QSSnDY8gg2Mkq2wcROEcEz8OEtvHHlR74IcWq9bTZwQdHWFhDS0nh8uBantze6Q7VM78bNXPblRHVuLqfEKll2sCzp_3FhzzmFEEeSwd8bOb6PbriF76UdzrscpSWvymSXdr3LImnYdjGZzhzGpY2ASejQiYNid31U7h8gYEcvDXXhenIZzj1INePgXTGxvu-GyljbfhxNT7oeD9sHNk3QjNAZDsY5GDcYjkl1FYWvlfF86gt1ToXag75fm9eFUFccRAGn6ncYbBjsCWJhP-_xS9OBfR-tTb5nUbmNR37qfQ2FSpx2EPLuy2HehA4fxINbeGiVHLlDuspkE8T6nICEMr5Zu5S69GsC6q9t87WZQa6EhB6kPQhSg02YteL2C98fgPedOEJ2tOu5eznHce0kJAElawFkhTSxUD7T0ijY9v2fjoM3Vw3J7jP_BW2uMfuSduG4frphF1Ah2du-Due4OubuuSH82Fid7JS6KiBoVyJGJclY76oQaxOpINQWffmWVT9qWIwpyCzjyJbynhx5byTNm8wRug_?></g></svg>