<svg xmlns="http://www.w3.org/2000/svg" xmlns:xlink="http://www.w3.org/1999/xlink" contentStyleType="text/css" data-diagram-type="ACTIVITY" height="1019px" preserveAspectRatio="none" style="width:1326px;height:1019px;background:#FFFFFF;" version="1.1" viewBox="0 0 1326 1019" width="1326px" zoomAndPan="magnify"><?plantuml 1.2026.3beta4?><defs/><g><g class="title" data-source-line="18"><text fill="#000000" font-family="'Segoe UI'" font-size="22" font-weight="700" lengthAdjust="spacing" textLength="578.499" x="372.8047" y="35.4209">Trading Pipeline &#8212; Lookahead Bias Prevention</text></g><rect fill="#FFFFFF" height="13.9688" style="stroke:#FFFFFF;stroke-width:1;" width="1289.1084" x="15" y="57.9395"/><rect fill="#E3F2FD" height="945.1875" style="stroke:#E3F2FD;stroke-width:1;" width="445.1895" x="15" y="57.9395"/><ellipse cx="141.2178" cy="86.9082" fill="#FFFFFF" rx="10" ry="10" style="stroke:#000000;stroke-width:1;"/><path d="M281.4355,107.9395 L281.4355,129.8926 L261.4355,133.8926 L281.4355,137.8926 L281.4355,159.8457 A0,0 0 0 0 281.4355,159.8457 L455.1895,159.8457 A0,0 0 0 0 455.1895,159.8457 L455.1895,117.9395 L445.1895,107.9395 L281.4355,107.9395 A0,0 0 0 0 281.4355,107.9395" fill="#FFFFFF" style="stroke:#000000;stroke-width:1;"/><path d="M445.1895,107.9395 L445.1895,117.9395 L455.1895,117.9395 L445.1895,107.9395" fill="#FFFFFF" style="stroke:#000000;stroke-width:1;"/><text fill="#000000" font-family="'Segoe UI'" font-size="12" lengthAdjust="spacing" textLength="104.1914" x="287.4355" y="124.0781">OHLCV, PER/PBR,</text><text fill="#000000" font-family="'Segoe UI'" font-size="12" lengthAdjust="spacing" textLength="117.0879" x="287.4355" y="138.0469">institutional trades,</text><text fill="#000000" font-family="'Segoe UI'" font-size="12" lengthAdjust="spacing" textLength="152.7539" x="287.4355" y="152.0156">margin, monthly revenue</text><rect fill="#F8F9FA" height="33.9688" rx="4" ry="4" style="stroke:#DEE2E6;stroke-width:1;" width="240.4355" x="21" y="116.9082"/><text fill="#212529" font-family="'Segoe UI'" font-size="12" lengthAdjust="spacing" textLength="220.4355" x="31" y="138.0469">Sync from TWSE / FinMind / yfinance</text><rect fill="#F8F9FA" height="33.9688" rx="4" ry="4" style="stroke:#DEE2E6;stroke-width:1;" width="149.6563" x="66.3896" y="179.8457"/><text fill="#212529" font-family="'Segoe UI'" font-size="12" lengthAdjust="spacing" textLength="129.6563" x="76.3896" y="200.9844">Store in SQLite (WAL)</text><line style="stroke:#000000;stroke-width:1;" x1="15" x2="15" y1="57.9395" y2="1003.127"/><rect fill="#F1F8E9" height="945.1875" style="stroke:#F1F8E9;stroke-width:1;" width="190.2832" x="460.1895" y="57.9395"/><rect fill="#F8F9FA" height="33.9688" rx="4" ry="4" style="stroke:#DEE2E6;stroke-width:1;" width="163.7246" x="474.4688" y="233.8145"/><text fill="#212529" font-family="'Segoe UI'" font-size="12" lengthAdjust="spacing" textLength="143.7246" x="484.4688" y="254.9531">QlibExporter &#8594; .bin files</text><rect fill="#F8F9FA" height="61.9063" rx="4" ry="4" style="stroke:#DEE2E6;stroke-width:1;" width="180.2832" x="466.1895" y="287.7832"/><text fill="#212529" font-family="'Segoe UI'" font-size="12" lengthAdjust="spacing" textLength="136.7168" x="476.1895" y="308.9219">Compute ~300 factors</text><text fill="#212529" font-family="'Segoe UI'" font-size="12" lengthAdjust="spacing" textLength="157.4004" x="476.1895" y="322.8906">(Alpha158 + Taiwan chips</text><text fill="#212529" font-family="'Segoe UI'" font-size="12" lengthAdjust="spacing" textLength="160.2832" x="476.1895" y="336.8594">+ interaction + enhanced)</text><line style="stroke:#000000;stroke-width:1;" x1="460.1895" x2="460.1895" y1="57.9395" y2="1003.127"/><rect fill="#FFF3E0" height="945.1875" style="stroke:#FFF3E0;stroke-width:1;" width="261.0527" x="650.4727" y="57.9395"/><rect fill="#F8F9FA" height="47.9375" rx="4" ry="4" style="stroke:#DEE2E6;stroke-width:1;" width="251.0527" x="656.4727" y="369.6895"/><text fill="#212529" font-family="'Segoe UI'" font-size="12" lengthAdjust="spacing" textLength="132.0703" x="666.4727" y="390.8281">Walk-Forward window</text><text fill="#212529" font-family="'Segoe UI'" font-size="12" lengthAdjust="spacing" textLength="231.0527" x="666.4727" y="404.7969">(504d train / 100d valid / 7d embargo)</text><rect fill="#F8F9FA" height="75.875" rx="4" ry="4" style="stroke:#DEE2E6;stroke-width:1;" width="185.123" x="689.4375" y="437.627"/><text fill="#212529" font-family="'Segoe UI'" font-size="12" lengthAdjust="spacing" textLength="151.6699" x="699.4375" y="458.7656">DoubleEnsemble training</text><text fill="#212529" font-family="'Segoe UI'" font-size="12" lengthAdjust="spacing" textLength="165.123" x="699.4375" y="472.7344">(K=3 LightGBM sub-models</text><text fill="#212529" font-family="'Segoe UI'" font-size="12" lengthAdjust="spacing" textLength="132.6445" x="699.4375" y="486.7031">+ sample reweighting</text><text fill="#212529" font-family="'Segoe UI'" font-size="12" lengthAdjust="spacing" textLength="119.8887" x="699.4375" y="500.6719">+ feature selection)</text><rect fill="#F8F9FA" height="33.9688" rx="4" ry="4" style="stroke:#DEE2E6;stroke-width:1;" width="189.043" x="687.4775" y="533.502"/><text fill="#212529" font-family="'Segoe UI'" font-size="12" lengthAdjust="spacing" textLength="169.043" x="697.4775" y="554.6406">Save model to data/models/</text><line style="stroke:#000000;stroke-width:1;" x1="650.4727" x2="650.4727" y1="57.9395" y2="1003.127"/><rect fill="#F3E5F5" height="945.1875" style="stroke:#F3E5F5;stroke-width:1;" width="170.6074" x="911.5254" y="57.9395"/><rect fill="#F8F9FA" height="47.9375" rx="4" ry="4" style="stroke:#DEE2E6;stroke-width:1;" width="151.0859" x="922.2861" y="587.4707"/><text fill="#212529" font-family="'Segoe UI'" font-size="12" lengthAdjust="spacing" textLength="105.7617" x="932.2861" y="608.6094">Load T-1 features</text><text fill="#212529" font-family="'Segoe UI'" font-size="12" lengthAdjust="spacing" textLength="131.0859" x="932.2861" y="622.5781">(strict: no T-day data)</text><rect fill="#F8F9FA" height="47.9375" rx="4" ry="4" style="stroke:#DEE2E6;stroke-width:1;" width="160.6074" x="917.5254" y="655.4082"/><text fill="#212529" font-family="'Segoe UI'" font-size="12" lengthAdjust="spacing" textLength="140.6074" x="927.5254" y="676.5469">Cross-sectional ranking</text><text fill="#212529" font-family="'Segoe UI'" font-size="12" lengthAdjust="spacing" textLength="104.1914" x="927.5254" y="690.5156">of top-100 stocks</text><rect fill="#F8F9FA" height="33.9688" rx="4" ry="4" style="stroke:#DEE2E6;stroke-width:1;" width="159.9102" x="917.874" y="723.3457"/><text fill="#212529" font-family="'Segoe UI'" font-size="12" lengthAdjust="spacing" textLength="139.9102" x="927.874" y="744.4844">Generate Top-K signals</text><line style="stroke:#000000;stroke-width:1;" x1="911.5254" x2="911.5254" y1="57.9395" y2="1003.127"/><rect fill="#E8F5E9" height="945.1875" style="stroke:#E8F5E9;stroke-width:1;" width="221.0684" x="1082.1328" y="57.9395"/><rect fill="#F8F9FA" height="47.9375" rx="4" ry="4" style="stroke:#DEE2E6;stroke-width:1;" width="198.6055" x="1094.3643" y="777.3145"/><text fill="#212529" font-family="'Segoe UI'" font-size="12" lengthAdjust="spacing" textLength="157.6465" x="1104.3643" y="798.4531">Multi-strategy backtesting</text><text fill="#212529" font-family="'Segoe UI'" font-size="12" lengthAdjust="spacing" textLength="178.6055" x="1104.3643" y="812.4219">(TopK / TopKDrop / HoldDrop)</text><rect fill="#F8F9FA" height="47.9375" rx="4" ry="4" style="stroke:#DEE2E6;stroke-width:1;" width="203.9199" x="1091.707" y="845.252"/><text fill="#212529" font-family="'Segoe UI'" font-size="12" lengthAdjust="spacing" textLength="64.3184" x="1101.707" y="866.3906">IC analysis</text><text fill="#212529" font-family="'Segoe UI'" font-size="12" lengthAdjust="spacing" textLength="183.9199" x="1101.707" y="880.3594">(multi-horizon, rolling, regime)</text><rect fill="#F8F9FA" height="47.9375" rx="4" ry="4" style="stroke:#DEE2E6;stroke-width:1;" width="211.0684" x="1088.1328" y="913.1895"/><text fill="#212529" font-family="'Segoe UI'" font-size="12" lengthAdjust="spacing" textLength="89.0273" x="1098.1328" y="934.3281">Report metrics</text><text fill="#212529" font-family="'Segoe UI'" font-size="12" lengthAdjust="spacing" textLength="191.0684" x="1098.1328" y="948.2969">(Sharpe, MaxDD, excess, t-stat)</text><ellipse cx="1193.667" cy="992.127" fill="none" rx="11" ry="11" style="stroke:#000000;stroke-width:1;"/><ellipse cx="1193.667" cy="992.127" fill="#FFFFFF" rx="6" ry="6" style="stroke:#000000;stroke-width:1;"/><line style="stroke:#000000;stroke-width:1;" x1="1082.1328" x2="1082.1328" y1="57.9395" y2="1003.127"/><line style="stroke:#000000;stroke-width:1;" x1="1303.2012" x2="1303.2012" y1="57.9395" y2="1003.127"/><line style="stroke:#555555;stroke-width:1.5;" x1="141.2178" x2="141.2178" y1="96.9082" y2="116.9082"/><polygon fill="#555555" points="137.2178,106.9082,141.2178,116.9082,145.2178,106.9082,141.2178,110.9082" style="stroke:#555555;stroke-width:1;"/><line style="stroke:#555555;stroke-width:1.5;" x1="141.2178" x2="141.2178" y1="150.877" y2="179.8457"/><polygon fill="#555555" points="137.2178,169.8457,141.2178,179.8457,145.2178,169.8457,141.2178,173.8457" style="stroke:#555555;stroke-width:1;"/><line style="stroke:#555555;stroke-width:1.5;" x1="556.3311" x2="556.3311" y1="267.7832" y2="287.7832"/><polygon fill="#555555" points="552.3311,277.7832,556.3311,287.7832,560.3311,277.7832,556.3311,281.7832" style="stroke:#555555;stroke-width:1;"/><line style="stroke:#555555;stroke-width:1.5;" x1="781.999" x2="781.999" y1="417.627" y2="437.627"/><polygon fill="#555555" points="777.999,427.627,781.999,437.627,785.999,427.627,781.999,431.627" style="stroke:#555555;stroke-width:1;"/><line style="stroke:#555555;stroke-width:1.5;" x1="781.999" x2="781.999" y1="513.502" y2="533.502"/><polygon fill="#555555" points="777.999,523.502,781.999,533.502,785.999,523.502,781.999,527.502" style="stroke:#555555;stroke-width:1;"/><line style="stroke:#555555;stroke-width:1.5;" x1="997.8291" x2="997.8291" y1="635.4082" y2="655.4082"/><polygon fill="#555555" points="993.8291,645.4082,997.8291,655.4082,1001.8291,645.4082,997.8291,649.4082" style="stroke:#555555;stroke-width:1;"/><line style="stroke:#555555;stroke-width:1.5;" x1="997.8291" x2="997.8291" y1="703.3457" y2="723.3457"/><polygon fill="#555555" points="993.8291,713.3457,997.8291,723.3457,1001.8291,713.3457,997.8291,717.3457" style="stroke:#555555;stroke-width:1;"/><line style="stroke:#555555;stroke-width:1.5;" x1="1193.667" x2="1193.667" y1="825.252" y2="845.252"/><polygon fill="#555555" points="1189.667,835.252,1193.667,845.252,1197.667,835.252,1193.667,839.252" style="stroke:#555555;stroke-width:1;"/><line style="stroke:#555555;stroke-width:1.5;" x1="1193.667" x2="1193.667" y1="893.1895" y2="913.1895"/><polygon fill="#555555" points="1189.667,903.1895,1193.667,913.1895,1197.667,903.1895,1193.667,907.1895" style="stroke:#555555;stroke-width:1;"/><line style="stroke:#555555;stroke-width:1.5;" x1="1193.667" x2="1193.667" y1="961.127" y2="981.127"/><polygon fill="#555555" points="1189.667,971.127,1193.667,981.127,1197.667,971.127,1193.667,975.127" style="stroke:#555555;stroke-width:1;"/><line style="stroke:#555555;stroke-width:1.5;" x1="141.2178" x2="141.2178" y1="213.8145" y2="218.8145"/><line style="stroke:#555555;stroke-width:1.5;" x1="141.2178" x2="556.3311" y1="218.8145" y2="218.8145"/><line style="stroke:#555555;stroke-width:1.5;" x1="556.3311" x2="556.3311" y1="218.8145" y2="233.8145"/><polygon fill="#555555" points="552.3311,223.8145,556.3311,233.8145,560.3311,223.8145,556.3311,227.8145" style="stroke:#555555;stroke-width:1;"/><line style="stroke:#555555;stroke-width:1.5;" x1="556.3311" x2="556.3311" y1="349.6895" y2="354.6895"/><line style="stroke:#555555;stroke-width:1.5;" x1="556.3311" x2="781.999" y1="354.6895" y2="354.6895"/><line style="stroke:#555555;stroke-width:1.5;" x1="781.999" x2="781.999" y1="354.6895" y2="369.6895"/><polygon fill="#555555" points="777.999,359.6895,781.999,369.6895,785.999,359.6895,781.999,363.6895" style="stroke:#555555;stroke-width:1;"/><line style="stroke:#555555;stroke-width:1.5;" x1="781.999" x2="781.999" y1="567.4707" y2="572.4707"/><line style="stroke:#555555;stroke-width:1.5;" x1="781.999" x2="997.8291" y1="572.4707" y2="572.4707"/><line style="stroke:#555555;stroke-width:1.5;" x1="997.8291" x2="997.8291" y1="572.4707" y2="587.4707"/><polygon fill="#555555" points="993.8291,577.4707,997.8291,587.4707,1001.8291,577.4707,997.8291,581.4707" style="stroke:#555555;stroke-width:1;"/><line style="stroke:#555555;stroke-width:1.5;" x1="997.8291" x2="997.8291" y1="757.3145" y2="762.3145"/><line style="stroke:#555555;stroke-width:1.5;" x1="997.8291" x2="1193.667" y1="762.3145" y2="762.3145"/><line style="stroke:#555555;stroke-width:1.5;" x1="1193.667" x2="1193.667" y1="762.3145" y2="777.3145"/><polygon fill="#555555" points="1189.667,767.3145,1193.667,777.3145,1197.667,767.3145,1193.667,771.3145" style="stroke:#555555;stroke-width:1;"/><text fill="#000000" font-family="'Segoe UI'" font-size="12" lengthAdjust="spacing" textLength="65.9238" x="204.6328" y="69.0781">Data Layer</text><text fill="#000000" font-family="'Segoe UI'" font-size="12" lengthAdjust="spacing" textLength="83.5371" x="513.5625" y="69.0781">Feature Layer</text><text fill="#000000" font-family="'Segoe UI'" font-size="12" lengthAdjust="spacing" textLength="86.3848" x="737.8066" y="69.0781">Training Layer</text><text fill="#000000" font-family="'Segoe UI'" font-size="12" lengthAdjust="spacing" textLength="97.3594" x="948.1494" y="69.0781">Prediction Layer</text><text fill="#000000" font-family="'Segoe UI'" font-size="12" lengthAdjust="spacing" textLength="100.5879" x="1142.373" y="69.0781">Evaluation Layer</text><?plantuml-src RLJRajCu47ttL_J2IxOc8JS2cKpnaCGsK9DPXabWdZjMnrP5bboIF9b0e7ZQ3zZQB-HBQ7a25Iv-iToNq-Tqj_MNBwWag1HA7Rcjr1LQB66DsJQtfjPYRfIny3XjdfC8GHkibK-DzlyW8pnQKcu8thr-zEUWfVn0q1-SE5s1mkoapc63oj69PsgjsHqBZvhdL-UgaDbMatFGVtBgF5AscYoCenC7PbxUIR-7Zn70x3Tru_GydGQFiOBiqHedoI1vnjR0_sWRz0UZmJdROecbqMBsXqODv_59m2bYciwdWtdqAOgyz8fWPL641bpBYfJK15-__0yBOxPO40gOINHmRUcEj9T6Hz7XSJ9C1sbyW1WzmWBthFCGEO_MHvFbNcUmiQQ4rUqoWIwaKbz9BVYqtqYDEgEBI1jFO6LUUERuvjLY_huDrybDztfsqsQBr8wfrQ4SAl3CZrombsXpgTl0adoXzj2GgYaYXW-GNDqRIvmFoxSBoJLQjzF5tnU1SzfFnydv0L92NtFCTzgJjqgka_lAMC_VN__z3vwiENyZ5RcBQ38tPLKpqETXhyShaZ6-YrfJLHNO7utX35OeTwWXAsJbeZCkpJ1XpaQpatGH18iZ1PvAqZk4XaiTElw3mosgRISrTeTM06yZhsJK6lMUYY2UsNIXt-i9k4CbGoEV2w1opSqm33o9JRrMb6Z7DXwdFw97hSiNGrY49h-SNO6hrvtI25A1fSEoub1BEmh-47q6csDd72bg10Jm9TuHD7dW3GWUUFS1fViWQPYCqj4Xx8UG3wf_Y5eOtfvLf_yTcFlclEMe2G-B7GBt3M0eCxV6kOvxgCipjwYtWPNPSDcgm-h1UPDjmqXU4lzOo3DPiUSIdCmvmpLqad4w2aDEk5Cr_apdYky0sM46d9hlcyl5askqjnZfaliQNh4r5HzV6IN2CP1xFGVa4didMKBPm1J6oW-6Lz4QnVzCpWVAPKaX_8R2Ca59GIndB0kq5RNX2k_Zk0rqd_6LqGRFND1p0WkhlW40?></g></svg>